<?xml version="1.0" encoding="utf-8"?>
<!-- Generator: Adobe Illustrator 28.0.0, SVG Export Plug-In . SVG Version: 6.00 Build 0)  -->
<svg version="1.1" id="Слой_6" xmlns="http://www.w3.org/2000/svg" xmlns:xlink="http://www.w3.org/1999/xlink" x="0px" y="0px"
	 viewBox="0 0 283.5 283.5" style="enable-background:new 0 0 283.5 283.5;" xml:space="preserve">
<style type="text/css">
	.st0{fill-rule:evenodd;clip-rule:evenodd;fill:#FFCF48;}
	.st1{fill:#FFCF48;}
	.st2{fill-rule:evenodd;clip-rule:evenodd;fill:#FFBC33;}
</style>
<g>
	<g>
		<path class="st0" d="M161.3,260.5c-1.5,0-2.9,0-4.4-0.1c-49.8-2.2-89.4-43.1-90.1-92.9c-0.4-25.5,9.3-49.6,27.1-67.8
			s41.8-28.2,67.3-28.2c2.2,0,4.4,0.1,6.7,0.3c1.9,0.1,3.5,1.5,3.9,3.3c0.4,1.9-0.3,3.8-1.9,4.8c-19.6,12.3-31.6,35.3-31.6,59.9
			c0,38,28.2,69.1,62.7,69.1c16.5,0,32.2-7.1,44-19.9c0.7-0.9,1.9-1.3,2.9-1.3c1.3,0,2.5,0.6,3.2,1.6c0.7,1,1,2.3,0.6,3.5
			C240,232.7,202.8,260.5,161.3,260.5z"/>
		<path class="st1" d="M161.3,74.8c2.2,0,4.4,0.1,6.4,0.3c1.2,0.1,1.5,1.5,0.6,2c-19.7,12.5-33.1,35.9-33.1,62.7
			c0,39.9,29.5,72.3,65.9,72.3c18.1,0,34.5-8,46.4-20.9c0.1-0.1,0.3-0.3,0.6-0.3c0.4,0,0.9,0.4,0.7,1
			c-11.2,37.7-46.2,65.2-87.4,65.2c-1.5,0-2.8,0-4.2-0.1c-47.9-2.2-86.2-41.8-86.9-89.7C69.3,116.3,110.4,74.8,161.3,74.8
			 M161.3,68.3c-26.4,0-51.1,10.3-69.7,29.2c-18.6,18.7-28.4,43.7-28.2,70.1C63.9,192.4,73.6,216,91,234s40.8,28.6,65.6,29.6
			c1.5,0,3,0.1,4.5,0.1c21.5,0,41.9-6.8,58.9-19.7c16.5-12.5,28.9-30.3,34.7-50.1c0.7-2.2,0.3-4.6-1.2-6.4c-1.3-1.9-3.6-2.9-5.8-2.9
			c-2,0-3.9,0.9-5.4,2.3c-11.2,12.2-26,18.9-41.7,18.9c-32.8,0-59.4-29.5-59.4-65.8c0-23.7,11.5-45.6,30-57.2
			c2.8-1.7,4.2-5.1,3.3-8.4c-0.9-3.2-3.6-5.5-6.8-5.8C165.8,68.4,163.5,68.3,161.3,68.3L161.3,68.3z"/>
	</g>
	<g>
		<path class="st2" d="M84.5,73.9c-1.3,0-3.3-0.6-3.3-4.4c0-10.7-8.7-19.4-19.4-19.4c-0.6,0-0.9,0-1.2,0c-2.2-0.3-3.2-1.9-3.2-3.3
			c0-1,0.4-3.3,4.4-3.3c10.7,0,19.4-8.7,19.4-19.4c0-3.9,2.3-4.4,3.3-4.4c1,0,3.3,0.4,3.3,4.4c0,10.7,8.7,19.4,19.4,19.4
			c3.9,0,4.4,2.3,4.4,3.3c0,1.5-1,3-3.2,3.3c-0.3,0-0.7,0-1.2,0c-10.7,0-19.4,8.7-19.4,19.4c0,0.6,0,1,0,1.2
			C87.6,72.9,86,73.9,84.5,73.9L84.5,73.9z"/>
	</g>
	<g>
		<path class="st2" d="M47.9,115.3c-0.6,0-3.3-0.1-3.3-4.1c0-6.8-5.5-12.3-12.3-12.3c-0.4,0-0.7,0-0.9,0c-2.2-0.3-3-1.9-3-3.3
			c0-0.6,0.1-3.3,4.1-3.3c6.8,0,12.3-5.5,12.3-12.3c0-3.8,2.8-4.1,3.3-4.1c0.6,0,3.3,0.1,3.3,4.1c0,6.8,5.5,12.3,12.3,12.3
			c3.9,0,4.1,2.8,4.1,3.3s-0.1,3.3-4.1,3.3c-6.8,0-12.3,5.5-12.3,12.3c0,0.4,0,0.7,0,0.9C51,114.3,49.4,115.3,47.9,115.3L47.9,115.3
			z"/>
	</g>
	<g>
		<g>
			<path class="st2" d="M84.5,167.4c-0.7-48.3,36.3-88.2,83.5-92.2c-0.1,0-0.3-0.1-0.4-0.1c-2.2-0.1-4.2-0.3-6.4-0.3
				c-50.8,0-91.9,41.5-91.2,92.6c0.7,47.9,39,87.5,86.9,89.7c3.9,0.1,7.8,0.1,11.6-0.1C122.1,253.3,85.2,214.3,84.5,167.4z"/>
		</g>
	</g>
</g>
</svg>
