<?xml version="1.0" encoding="utf-8"?>
<!-- Generator: Adobe Illustrator 28.0.0, SVG Export Plug-In . SVG Version: 6.00 Build 0)  -->
<svg version="1.1" id="_x3C_Layer_x3E_" xmlns="http://www.w3.org/2000/svg" xmlns:xlink="http://www.w3.org/1999/xlink" x="0px"
	 y="0px" viewBox="0 0 350 525" style="enable-background:new 0 0 350 525;" xml:space="preserve">
<style type="text/css">
	.st0{clip-path:url(#SVGID_00000121240077133602587490000013553072509426724781_);fill:#FF534B;}
	.st1{clip-path:url(#SVGID_00000121240077133602587490000013553072509426724781_);}
	.st2{fill:#231F20;}
	.st3{fill:#D1D3D4;}
	.st4{fill:#8C8C8C;}
	.st5{fill:#C0BEBF;}
	.st6{fill:#BAB8B9;}
	.st7{fill:#D5D5D5;}
	.st8{fill:#485257;}
	.st9{fill:#FFFFFF;}
	.st10{fill:#323232;}
	.st11{opacity:0.3;fill:#58595B;}
	.st12{fill:#A7A9AC;}
	.st13{fill:#6B787B;}
	.st14{fill:#FDE07C;}
	.st15{fill:#F8E598;}
	.st16{fill:#FECC6B;}
	.st17{fill:#F1F2F2;}
	.st18{fill:#E55529;}
	.st19{fill:#CEEDE7;}
	.st20{fill:#7FCBBF;}
	.st21{fill:#36A696;}
	.st22{fill:#2EA891;}
	.st23{clip-path:url(#SVGID_00000121240077133602587490000013553072509426724781_);fill:#FFE86C;}
</style>
<g>
	<defs>
		<rect id="SVGID_1_" x="0" y="0" width="350" height="525"/>
	</defs>
	<clipPath id="SVGID_00000023268538647271951460000016445461438432458121_">
		<use xlink:href="#SVGID_1_"  style="overflow:visible;"/>
	</clipPath>
	
		<rect x="0" y="0" style="clip-path:url(#SVGID_00000023268538647271951460000016445461438432458121_);fill:#FF534B;" width="350" height="525"/>
	<g style="clip-path:url(#SVGID_00000023268538647271951460000016445461438432458121_);">
		<path class="st2" d="M63.92,77c-14.94,51.58,21.81,48.51,21.81,48.51l7.84-12.5c0,0-17.58-6.68-19.91-16.84
			c-2.33-10.17,0.43-21.5,0.43-21.5L63.92,77z"/>
		<g>
			<path class="st2" d="M71.59,78.66C57.51,101.09,27.92,107.87,5.49,93.8C-16.94,79.73-23.71,50.14-9.64,27.71
				C4.43,5.27,34.02-1.5,56.45,12.57C78.88,26.64,85.66,56.23,71.59,78.66z"/>
			<path class="st3" d="M5.38,93.97C-17.11,79.86-23.92,50.09-9.82,27.6C4.29,5.11,34.07-1.71,56.56,12.4
				c22.49,14.11,29.31,43.89,15.2,66.38C57.65,101.26,27.87,108.08,5.38,93.97z M56.34,12.74C34.04-1.25,4.52,5.51-9.47,27.81
				C-23.46,50.11-16.7,79.64,5.6,93.63c22.3,13.99,51.82,7.23,65.81-15.07C85.4,56.26,78.64,26.73,56.34,12.74z"/>
		</g>
		<g>
			
				<ellipse transform="matrix(0.9473 -0.3204 0.3204 0.9473 -15.4097 12.7298)" class="st2" cx="30.97" cy="53.18" rx="44.26" ry="44.26"/>
			<path class="st3" d="M7.34,90.85C-13.42,77.82-19.72,50.32-6.69,29.56C6.34,8.79,33.83,2.49,54.6,15.52
				c20.77,13.03,27.06,40.52,14.03,61.29C55.61,97.58,28.11,103.88,7.34,90.85z M54.38,15.87C33.81,2.96,6.57,9.2-6.34,29.77
				C-19.25,50.35-13.01,77.59,7.56,90.5c20.58,12.91,47.82,6.67,60.73-13.91C81.2,56.02,74.96,28.78,54.38,15.87z"/>
		</g>
		<g>
			<path class="st2" d="M65.34,74.74C53.43,93.72,28.39,99.46,9.41,87.55C-9.57,75.64-15.3,50.6-3.39,31.62
				C8.51,12.65,33.55,6.91,52.53,18.82C71.51,30.73,77.25,55.76,65.34,74.74z"/>
			<path class="st3" d="M9.3,87.72C-9.74,75.78-15.51,50.56-3.57,31.52C8.38,12.47,33.6,6.7,52.64,18.65
				c19.04,11.95,24.82,37.16,12.87,56.21C53.56,93.9,28.35,99.67,9.3,87.72z M52.42,18.99C33.57,7.16,8.61,12.88-3.22,31.73
				C-15.05,50.59-9.33,75.55,9.52,87.38c18.85,11.83,43.82,6.11,55.64-12.74C76.99,55.78,71.28,30.82,52.42,18.99z"/>
		</g>
		<g>
			
				<ellipse transform="matrix(0.6122 -0.7907 0.7907 0.6122 -30.0421 45.1148)" class="st2" cx="30.97" cy="53.18" rx="36.88" ry="36.88"/>
			<path class="st3" d="M11.26,84.6C-6.06,73.73-11.31,50.8-0.44,33.48c10.87-17.32,33.8-22.57,51.12-11.71
				C68,32.64,73.25,55.57,62.39,72.89C51.52,90.22,28.59,95.47,11.26,84.6z M50.46,22.12C33.33,11.37,10.65,16.56-0.1,33.69
				c-10.75,17.13-5.55,39.81,11.58,50.56C28.61,95,51.29,89.81,62.04,72.68C72.79,55.54,67.59,32.86,50.46,22.12z"/>
		</g>
		<g>
			<path class="st2" d="M59.09,70.82C49.35,86.35,28.86,91.04,13.33,81.3C-2.2,71.56-6.89,51.07,2.85,35.55
				c9.74-15.53,30.23-20.22,45.76-10.48C64.14,34.81,68.83,55.3,59.09,70.82z"/>
			<path class="st3" d="M13.22,81.48C-2.38,71.69-7.11,51.04,2.68,35.44c9.79-15.6,30.44-20.33,46.04-10.54
				c15.6,9.79,20.33,30.44,10.54,46.04C49.48,86.53,28.82,91.26,13.22,81.48z M48.5,25.24c-15.41-9.67-35.81-5-45.48,10.41
				c-9.67,15.41-4.99,35.81,10.41,45.47c15.41,9.67,35.81,4.99,45.48-10.41C68.58,55.31,63.91,34.91,48.5,25.24z"/>
		</g>
		<g>
			<path class="st2" d="M55.97,68.86c-8.66,13.8-26.87,17.97-40.67,9.31C1.49,69.52-2.68,51.31,5.98,37.5
				c8.66-13.8,26.87-17.97,40.67-9.31C60.46,36.85,64.63,55.06,55.97,68.86z"/>
			<path class="st3" d="M15.18,78.35C1.31,69.65-2.9,51.27,5.81,37.4c8.71-13.88,27.08-18.08,40.96-9.38
				c13.88,8.71,18.08,27.08,9.38,40.96C47.43,82.85,29.06,87.06,15.18,78.35z M46.54,28.36c-13.69-8.59-31.81-4.44-40.39,9.25
				C-2.43,51.3,1.72,69.42,15.4,78c13.69,8.59,31.8,4.44,40.39-9.25C64.38,55.07,60.23,36.95,46.54,28.36z"/>
		</g>
		<g>
			<path class="st2" d="M52.84,66.9c-7.58,12.08-23.51,15.73-35.59,8.15C5.18,67.48,1.53,51.54,9.1,39.46
				c7.58-12.08,23.51-15.73,35.59-8.15C56.77,38.89,60.42,54.83,52.84,66.9z"/>
			<path class="st3" d="M17.04,75.4C4.78,67.72,1.07,51.5,8.76,39.25c7.68-12.25,23.9-15.96,36.15-8.28
				c12.25,7.68,15.96,23.9,8.28,36.15C45.5,79.37,29.28,83.09,17.04,75.4z M44.47,31.66c-11.87-7.45-27.58-3.85-35.02,8.02
				C2.01,51.55,5.6,67.26,17.47,74.71c11.87,7.45,27.58,3.85,35.02-8.02C59.94,54.82,56.34,39.11,44.47,31.66z"/>
		</g>
		<g>
			<path class="st2" d="M49.72,64.94c-6.49,10.35-20.15,13.48-30.5,6.98c-10.35-6.49-13.48-20.15-6.99-30.5
				c6.49-10.35,20.15-13.48,30.5-6.99C53.08,40.93,56.21,54.59,49.72,64.94z"/>
			<path class="st3" d="M18.99,72.28c-10.53-6.6-13.72-20.54-7.11-31.07c6.6-10.53,20.54-13.72,31.07-7.11
				c10.53,6.6,13.72,20.54,7.11,31.07C43.46,75.69,29.52,78.88,18.99,72.28z M42.51,34.79c-10.14-6.36-23.58-3.29-29.94,6.86
				c-6.36,10.14-3.29,23.58,6.86,29.94c10.14,6.36,23.58,3.29,29.94-6.86C55.74,54.58,52.66,41.15,42.51,34.79z"/>
		</g>
		<g>
			<path class="st2" d="M46.59,62.98c-5.41,8.63-16.79,11.23-25.42,5.82c-8.63-5.41-11.23-16.79-5.82-25.42
				c5.41-8.63,16.79-11.23,25.42-5.82C49.4,42.98,52.01,54.36,46.59,62.98z"/>
			<path class="st3" d="M20.95,69.15C12.15,63.63,9.48,51.97,15,43.17c5.52-8.8,17.18-11.47,25.99-5.95
				c8.8,5.52,11.47,17.18,5.95,25.99C41.42,72.01,29.76,74.68,20.95,69.15z M40.55,37.91c-8.42-5.28-19.57-2.73-24.86,5.69
				c-5.28,8.42-2.73,19.57,5.69,24.86c8.42,5.28,19.57,2.73,24.86-5.69C51.53,54.34,48.98,43.19,40.55,37.91z"/>
		</g>
		<path class="st4" d="M43.47,61.02c-4.33,6.9-13.43,8.99-20.34,4.66c-6.9-4.33-8.99-13.43-4.66-20.34
			c4.33-6.9,13.44-8.99,20.34-4.66C45.71,45.02,47.8,54.12,43.47,61.02z"/>
		<g>
			<g>
				<path class="st5" d="M41.54,79.14c-2.69-1.69-5.78-2.46-8.96-2.25c-8.23,0.56-14.47,7.71-13.91,15.94
					c0.32,4.76,2.93,9.12,6.98,11.66c2.69,1.69,5.78,2.46,8.96,2.25c8.23-0.56,14.47-7.71,13.91-15.94
					C48.2,86.04,45.59,81.68,41.54,79.14z M34.48,104.7c-7.11,0.48-13.27-4.89-13.76-12c-0.48-7.11,4.89-13.27,12-13.76
					c7.11-0.48,13.27,4.89,13.76,12C46.97,98.05,41.6,104.21,34.48,104.7z"/>
				<path class="st5" d="M64.22,28.33c4.38-6.99,2.26-16.24-4.72-20.62c-6.99-4.38-16.24-2.26-20.62,4.72
					c-4.38,6.99-2.26,16.24,4.72,20.62C50.59,37.43,59.84,35.32,64.22,28.33z M44.69,31.32c-6.04-3.79-7.86-11.76-4.07-17.79
					c3.79-6.04,11.76-7.86,17.79-4.07c6.04,3.79,7.86,11.76,4.07,17.79C58.7,33.28,50.73,35.1,44.69,31.32z"/>
				<path class="st5" d="M15.73,34.95c6.33-5.29,7.17-14.74,1.88-21.07c-1.01-1.21-2.2-2.25-3.53-3.08C8.58,7.35,1.53,7.83-3.46,12
					c-3.07,2.56-4.95,6.17-5.3,10.15C-9.12,26.12-7.9,30-5.34,33.07c1.01,1.21,2.2,2.25,3.53,3.08
					C3.69,39.6,10.74,39.12,15.73,34.95z M-3.77,31.75c-4.57-5.47-3.85-13.61,1.62-18.18C3.32,9,11.46,9.73,16.04,15.2
					c4.57,5.47,3.85,13.61-1.62,18.18C8.94,37.95,0.8,37.22-3.77,31.75z"/>
				<path class="st5" d="M83.04,66.26c1.58-6.31-1.05-12.86-6.55-16.32c-1.33-0.83-2.78-1.45-4.31-1.83
					c-8-2.01-16.14,2.86-18.15,10.86c-1.58,6.31,1.05,12.86,6.55,16.32c1.33,0.83,2.78,1.45,4.31,1.84
					c3.87,0.97,7.9,0.38,11.32-1.67C79.64,73.4,82.06,70.14,83.04,66.26z M65.38,75.14c-6.91-1.74-11.11-8.75-9.37-15.66
					c1.74-6.91,8.75-11.11,15.66-9.37c6.91,1.74,11.11,8.75,9.37,15.66C79.31,72.68,72.3,76.88,65.38,75.14z"/>
				<path class="st5" d="M8.92,62.05C7.73,59.1,5.69,56.65,3,54.96c-4.05-2.54-9.11-2.99-13.54-1.21c-3.71,1.49-6.61,4.33-8.18,8.01
					c-1.57,3.67-1.61,7.74-0.12,11.45c1.19,2.95,3.23,5.4,5.92,7.09c4.05,2.54,9.11,2.99,13.54,1.21C8.27,78.43,12,69.7,8.92,62.05z
					 M-0.14,79.6c-6.61,2.66-14.13-0.55-16.79-7.16c-2.66-6.61,0.55-14.13,7.16-16.79c6.61-2.66,14.13,0.55,16.79,7.16
					C9.68,69.43,6.47,76.94-0.14,79.6z"/>
			</g>
		</g>
		<path class="st6" d="M64.29,0.07C34.96-18.33-3.74-9.47-22.14,19.87c-18.4,29.33-9.54,68.03,19.79,86.43
			c29.33,18.4,68.03,9.54,86.43-19.79C102.49,57.17,93.62,18.48,64.29,0.07z M59.5,7.71c6.99,4.38,9.1,13.63,4.72,20.62
			c-4.38,6.99-13.63,9.1-20.62,4.72c-6.99-4.38-9.1-13.63-4.72-20.62C43.27,5.45,52.52,3.33,59.5,7.71z M-8.76,22.15
			c0.36-3.98,2.24-7.58,5.3-10.15c4.99-4.17,12.04-4.65,17.54-1.2c1.33,0.83,2.51,1.87,3.53,3.08c5.29,6.33,4.45,15.78-1.88,21.07
			c-4.99,4.17-12.04,4.65-17.54,1.2c-1.33-0.83-2.51-1.87-3.53-3.08C-7.9,30-9.12,26.12-8.76,22.15z M0.62,81.5
			c-4.43,1.78-9.49,1.33-13.54-1.21c-2.69-1.69-4.73-4.14-5.92-7.09c-1.49-3.71-1.45-7.77,0.12-11.45c1.57-3.67,4.47-6.52,8.18-8.01
			c4.43-1.78,9.49-1.33,13.54,1.21c2.69,1.69,4.73,4.14,5.92,7.09C12,69.7,8.27,78.43,0.62,81.5z M27.05,59.43
			c-3.45-2.16-4.49-6.72-2.33-10.17c2.17-3.45,6.72-4.49,10.17-2.33c3.45,2.16,4.49,6.72,2.33,10.17
			C35.06,60.56,30.5,61.6,27.05,59.43z M34.62,106.74c-3.17,0.22-6.27-0.56-8.96-2.25c-4.05-2.54-6.66-6.9-6.98-11.66
			c-0.56-8.23,5.68-15.38,13.91-15.94c3.17-0.22,6.27,0.56,8.96,2.25c4.05,2.54,6.66,6.9,6.98,11.66
			C49.09,99.03,42.85,106.18,34.62,106.74z M64.89,77.13c-1.53-0.38-2.98-1-4.31-1.84c-5.5-3.45-8.14-10.01-6.55-16.32
			c2.01-8,10.15-12.87,18.15-10.86c1.53,0.39,2.98,1,4.31,1.83c5.5,3.45,8.14,10.01,6.55,16.32c-0.97,3.88-3.4,7.14-6.83,9.19
			C72.78,77.51,68.76,78.1,64.89,77.13z"/>
		<path class="st7" d="M62.33,3.2C34.73-14.12-1.69-5.78-19.01,21.83c-17.32,27.61-8.98,64.03,18.63,81.35
			c27.61,17.32,64.03,8.98,81.35-18.63C98.28,56.94,89.94,20.52,62.33,3.2z M-3.77,31.75c-4.57-5.47-3.85-13.61,1.62-18.18
			C3.32,9,11.46,9.73,16.04,15.2c4.57,5.47,3.85,13.61-1.62,18.18C8.94,37.95,0.8,37.22-3.77,31.75z M-0.14,79.6
			c-6.61,2.66-14.13-0.55-16.79-7.16c-2.66-6.61,0.55-14.13,7.16-16.79c6.61-2.66,14.13,0.55,16.79,7.16
			C9.68,69.43,6.47,76.94-0.14,79.6z M27.05,59.43c-3.45-2.16-4.49-6.72-2.33-10.17c2.17-3.45,6.72-4.49,10.17-2.33
			c3.45,2.16,4.49,6.72,2.33,10.17C35.06,60.56,30.5,61.6,27.05,59.43z M44.69,31.32c-6.04-3.79-7.86-11.76-4.07-17.79
			c3.79-6.04,11.76-7.86,17.79-4.07c6.04,3.79,7.86,11.76,4.07,17.79C58.7,33.28,50.73,35.1,44.69,31.32z M34.48,104.7
			c-7.11,0.48-13.27-4.89-13.76-12c-0.48-7.11,4.89-13.27,12-13.76c7.11-0.48,13.27,4.89,13.76,12
			C46.97,98.05,41.6,104.21,34.48,104.7z M65.38,75.14c-6.91-1.74-11.11-8.75-9.37-15.66c1.74-6.91,8.75-11.11,15.66-9.37
			c6.91,1.74,11.11,8.75,9.37,15.66C79.31,72.68,72.3,76.88,65.38,75.14z"/>
		<g>
			<path class="st5" d="M41.54,79.14c-2.69-1.69-5.78-2.46-8.96-2.25c-8.23,0.56-14.47,7.71-13.91,15.94
				c0.32,4.76,2.93,9.12,6.98,11.66c2.69,1.69,5.78,2.46,8.96,2.25c8.23-0.56,14.47-7.71,13.91-15.94
				C48.2,86.04,45.59,81.68,41.54,79.14z M34.48,104.7c-7.11,0.48-13.27-4.89-13.76-12c-0.48-7.11,4.89-13.27,12-13.76
				c7.11-0.48,13.27,4.89,13.76,12C46.97,98.05,41.6,104.21,34.48,104.7z"/>
			<path class="st5" d="M64.22,28.33c4.38-6.99,2.26-16.24-4.72-20.62c-6.99-4.38-16.24-2.26-20.62,4.72
				c-4.38,6.99-2.26,16.24,4.72,20.62C50.59,37.43,59.84,35.32,64.22,28.33z M44.69,31.32c-6.04-3.79-7.86-11.76-4.07-17.79
				c3.79-6.04,11.76-7.86,17.79-4.07c6.04,3.79,7.86,11.76,4.07,17.79C58.7,33.28,50.73,35.1,44.69,31.32z"/>
			<path class="st5" d="M15.73,34.95c6.33-5.29,7.17-14.74,1.88-21.07c-1.01-1.21-2.2-2.25-3.53-3.08C8.58,7.35,1.53,7.83-3.46,12
				c-3.07,2.56-4.95,6.17-5.3,10.15C-9.12,26.12-7.9,30-5.34,33.07c1.01,1.21,2.2,2.25,3.53,3.08C3.69,39.6,10.74,39.12,15.73,34.95
				z M-3.77,31.75c-4.57-5.47-3.85-13.61,1.62-18.18C3.32,9,11.46,9.73,16.04,15.2c4.57,5.47,3.85,13.61-1.62,18.18
				C8.94,37.95,0.8,37.22-3.77,31.75z"/>
			<path class="st5" d="M83.04,66.26c1.58-6.31-1.05-12.86-6.55-16.32c-1.33-0.83-2.78-1.45-4.31-1.83
				c-8-2.01-16.14,2.86-18.15,10.86c-1.58,6.31,1.05,12.86,6.55,16.32c1.33,0.83,2.78,1.45,4.31,1.84c3.87,0.97,7.9,0.38,11.32-1.67
				C79.64,73.4,82.06,70.14,83.04,66.26z M65.38,75.14c-6.91-1.74-11.11-8.75-9.37-15.66c1.74-6.91,8.75-11.11,15.66-9.37
				c6.91,1.74,11.11,8.75,9.37,15.66C79.31,72.68,72.3,76.88,65.38,75.14z"/>
			<path class="st5" d="M8.92,62.05C7.73,59.1,5.69,56.65,3,54.96c-4.05-2.54-9.11-2.99-13.54-1.21c-3.71,1.49-6.61,4.33-8.18,8.01
				c-1.57,3.67-1.61,7.74-0.12,11.45c1.19,2.95,3.23,5.4,5.92,7.09c4.05,2.54,9.11,2.99,13.54,1.21C8.27,78.43,12,69.7,8.92,62.05z
				 M-0.14,79.6c-6.61,2.66-14.13-0.55-16.79-7.16c-2.66-6.61,0.55-14.13,7.16-16.79c6.61-2.66,14.13,0.55,16.79,7.16
				C9.68,69.43,6.47,76.94-0.14,79.6z"/>
		</g>
	</g>
	<g style="clip-path:url(#SVGID_00000023268538647271951460000016445461438432458121_);">
		<path class="st8" d="M322.8,73.78c5.42-5.85,11.32-11.03,17.56-15.99c3.34-2.65,6.7-5.27,9.95-8.03c3.03-2.58,5.83-5.4,8.85-7.98
			c5.32-4.55,11.07-8.57,16.34-13.18l-47.6-50.46c-0.57-0.61-1.54-0.64-2.15-0.06l-61.55,58.06c-0.61,0.57-0.64,1.54-0.06,2.15
			l46.31,49.09C314.67,82.95,318.64,78.28,322.8,73.78z"/>
		
			<rect x="297.21" y="49.08" transform="matrix(0.7274 -0.6862 0.6862 0.7274 54.5813 249.2601)" class="st8" width="87.65" height="13.7"/>
		<path class="st8" d="M327.91-21.86c-0.57-0.61-1.54-0.64-2.15-0.06l-61.55,58.06c-0.61,0.57-0.64,1.54-0.06,2.15l40.3,42.73
			l63.76-60.14L327.91-21.86z"/>
		<g>
			<polygon class="st9" points="379.01,46.02 363.35,46.6 357.15,58.8 372.8,58.23 			"/>
			<path class="st10" d="M383.56,37.07c0.38-0.75,0.08-1.67-0.67-2.05l-2.06-1.05l-11.27,0.41l-6.21,12.21l15.66-0.57L383.56,37.07z
				"/>
			<polygon class="st8" points="372.05,29.51 369.56,34.39 380.84,33.98 			"/>
			<polygon class="st10" points="372.8,58.23 357.15,58.8 350.94,71.01 366.59,70.44 			"/>
			<path class="st10" d="M345.21,112.49l2.76-5.43l-15.66,0.57l10.85,5.52C343.91,113.53,344.83,113.23,345.21,112.49z"/>
			<polygon class="st9" points="354.17,94.85 338.52,95.43 332.31,107.63 347.97,107.06 			"/>
			<polygon class="st10" points="360.38,82.65 344.73,83.22 338.52,95.43 354.17,94.85 			"/>
			<polygon class="st9" points="366.59,70.44 350.94,71.01 344.73,83.22 360.38,82.65 			"/>
		</g>
		<g>
			<polygon class="st9" points="359.8,28.81 363.66,43.99 353.7,53.39 349.84,38.21 			"/>
			<path class="st10" d="M367.11,21.92c0.61-0.57,1.58-0.55,2.15,0.06l1.59,1.68l2.78,10.93l-9.96,9.4l-3.86-15.18L367.11,21.92z"/>
			<polygon class="st8" points="377.61,30.84 373.63,34.6 370.85,23.67 			"/>
			<polygon class="st10" points="349.84,38.21 353.7,53.39 343.74,62.79 339.88,47.61 			"/>
			<path class="st10" d="M305.56,79.98l4.43-4.18l3.86,15.18l-8.35-8.86C304.92,81.52,304.95,80.55,305.56,79.98z"/>
			<polygon class="st9" points="319.95,66.4 323.81,81.59 313.85,90.98 309.99,75.8 			"/>
			<polygon class="st10" points="329.91,57 333.78,72.19 323.81,81.59 319.95,66.4 			"/>
			<polygon class="st9" points="339.88,47.61 343.74,62.79 333.78,72.19 329.91,57 			"/>
		</g>
		
			<rect x="301.89" y="60.27" transform="matrix(0.7274 -0.6862 0.6862 0.7274 52.4686 253.844)" class="st11" width="87.75" height="1.22"/>
		<path class="st12" d="M385.67,38.92c0.88-0.32,1.08-1.14,0.43-1.82l-16.58-17.58c-0.64-0.68-1.73-0.71-2.41-0.07L349.03,36.5
			c-0.68,0.64-0.71,1.73-0.07,2.41l8.17,8.67c0.64,0.68,1.89,0.98,2.77,0.66L385.67,38.92z"/>
		<g>
			<path class="st10" d="M379.17,38.07c1.14-1.08,1.19-2.87,0.12-4.02c-1.08-1.14-2.87-1.19-4.01-0.12
				c-1.14,1.08-1.19,2.87-0.12,4.02C376.24,39.09,378.03,39.14,379.17,38.07z"/>
			<path class="st13" d="M379.4,37.86c1.02-0.96,1.07-2.57,0.1-3.59c-0.96-1.02-2.57-1.07-3.59-0.1c-1.02,0.96-1.07,2.57-0.11,3.59
				C376.77,38.77,378.38,38.82,379.4,37.86z"/>
		</g>
		<g>
			<path class="st10" d="M370.4,28.77c1.14-1.08,1.19-2.87,0.12-4.02c-1.08-1.14-2.87-1.19-4.02-0.12
				c-1.14,1.08-1.19,2.87-0.12,4.02C367.46,29.79,369.26,29.85,370.4,28.77z"/>
			<path class="st13" d="M370.62,28.56c1.02-0.96,1.07-2.57,0.1-3.59c-0.96-1.02-2.57-1.07-3.59-0.11c-1.02,0.96-1.07,2.57-0.1,3.59
				C368,29.47,369.61,29.52,370.62,28.56z"/>
		</g>
		<g>
			<path class="st10" d="M358.52,39.98c1.14-1.08,1.19-2.87,0.12-4.02c-1.08-1.14-2.87-1.19-4.02-0.12
				c-1.14,1.08-1.19,2.87-0.12,4.02C355.58,41,357.38,41.05,358.52,39.98z"/>
			<path class="st13" d="M358.74,39.77c1.02-0.96,1.07-2.57,0.1-3.59c-0.96-1.02-2.57-1.07-3.59-0.1c-1.02,0.96-1.07,2.57-0.1,3.59
				C356.12,40.68,357.72,40.73,358.74,39.77z"/>
		</g>
		<path class="st9" d="M298.84,63.09l51.81-48.87c0.18-0.17,0.47-0.17,0.65,0.02c0.17,0.18,0.16,0.47-0.02,0.65l-51.81,48.87
			c-0.18,0.17-0.47,0.16-0.65-0.02C298.65,63.56,298.66,63.27,298.84,63.09z"/>
		<path class="st9" d="M287.56,51.14l51.81-48.87c0.18-0.17,0.47-0.16,0.65,0.02c0.17,0.18,0.16,0.47-0.02,0.65L288.19,51.8
			c-0.18,0.17-0.47,0.16-0.65-0.02C287.37,51.6,287.38,51.31,287.56,51.14z"/>
		<path class="st9" d="M276.28,39.18l51.81-48.87c0.18-0.17,0.47-0.17,0.65,0.02c0.17,0.18,0.16,0.47-0.02,0.64l-51.81,48.87
			c-0.18,0.17-0.47,0.16-0.65-0.02C276.09,39.64,276.1,39.35,276.28,39.18z"/>
		<path class="st9" d="M340.68,23.62c0.18-0.17,0.47-0.16,0.65,0.02l7.52,7.97c0.17,0.18,0.16,0.47-0.02,0.65
			c-0.18,0.17-0.47,0.16-0.65-0.02l-7.52-7.97C340.49,24.09,340.5,23.8,340.68,23.62z"/>
		<path class="st9" d="M308.8,53.7c0.18-0.17,0.47-0.16,0.65,0.02l7.52,7.97c0.17,0.18,0.16,0.47-0.02,0.65
			c-0.18,0.17-0.47,0.16-0.65-0.02l-7.52-7.97C308.61,54.16,308.62,53.87,308.8,53.7z"/>
	</g>
	<g style="clip-path:url(#SVGID_00000023268538647271951460000016445461438432458121_);">
		<path class="st8" d="M171.49,473.56c-0.93,7.92-2.64,15.59-4.76,23.27c-1.13,4.11-2.31,8.21-3.31,12.35
			c-0.93,3.87-1.53,7.8-2.45,11.67c-1.61,6.81-3.9,13.45-5.43,20.28l68.19,12.7c0.82,0.15,1.62-0.39,1.77-1.22l15.49-83.18
			c0.15-0.82-0.39-1.62-1.22-1.77l-66.35-12.36C172.65,461.36,172.2,467.47,171.49,473.56z"/>
		
			<rect x="123.46" y="491.88" transform="matrix(0.1831 -0.9831 0.9831 0.1831 -353.633 571.8751)" class="st8" width="87.65" height="13.7"/>
		<path class="st8" d="M223.74,553.82c0.82,0.15,1.62-0.39,1.77-1.22l15.49-83.18c0.15-0.82-0.39-1.62-1.22-1.77l-57.75-10.76
			L166,543.06L223.74,553.82z"/>
		<g>
			<polygon class="st9" points="142.45,529.11 154.76,519.42 152.58,505.9 140.27,515.59 			"/>
			<path class="st10" d="M144.05,539.03c0.13,0.83,0.92,1.39,1.74,1.26l2.28-0.37l8.86-6.98l-2.18-13.52l-12.31,9.69L144.05,539.03z
				"/>
			<polygon class="st8" points="157.81,538.35 156.94,532.94 148.08,539.92 			"/>
			<polygon class="st10" points="140.27,515.59 152.58,505.9 150.4,492.38 138.09,502.07 			"/>
			<path class="st10" d="M130.58,455.5l0.97,6.01l12.31-9.69l-12.02,1.94C131.01,453.89,130.44,454.67,130.58,455.5z"/>
			<polygon class="st9" points="133.73,475.03 146.04,465.34 143.85,451.82 131.55,461.51 			"/>
			<polygon class="st10" points="135.91,488.55 148.22,478.86 146.04,465.34 133.73,475.03 			"/>
			<polygon class="st9" points="138.09,502.07 150.4,492.38 148.22,478.86 135.91,488.55 			"/>
		</g>
		<g>
			<polygon class="st9" points="168.11,531.69 156.04,521.71 158.55,508.24 170.62,518.23 			"/>
			<path class="st10" d="M166.27,541.57c-0.15,0.82-0.95,1.37-1.77,1.22l-2.27-0.42l-8.69-7.19l2.51-13.46l12.07,9.99L166.27,541.57
				z"/>
			<polygon class="st8" points="152.53,540.55 153.53,535.17 162.23,542.36 			"/>
			<polygon class="st10" points="170.62,518.23 158.55,508.24 161.06,494.78 173.13,504.76 			"/>
			<path class="st10" d="M181.77,458.39l-1.11,5.98l-12.07-9.99l11.97,2.23C181.37,456.77,181.92,457.56,181.77,458.39z"/>
			<polygon class="st9" points="178.14,477.84 166.07,467.85 168.58,454.38 180.65,464.37 			"/>
			<polygon class="st10" points="175.64,491.3 163.57,481.31 166.07,467.85 178.14,477.84 			"/>
			<polygon class="st9" points="173.13,504.76 161.06,494.78 163.57,481.31 175.64,491.3 			"/>
		</g>
		
			<rect x="116.67" y="496.91" transform="matrix(0.1831 -0.9831 0.9831 0.1831 -357.9587 564.2466)" class="st11" width="87.75" height="1.22"/>
		<path class="st12" d="M141.26,538.78c-0.52,0.78-0.2,1.55,0.72,1.72l23.76,4.43c0.92,0.17,1.81-0.44,1.99-1.36l4.55-24.43
			c0.17-0.92-0.44-1.81-1.36-1.98l-11.71-2.18c-0.92-0.17-2.1,0.32-2.62,1.1L141.26,538.78z"/>
		<g>
			<path class="st10" d="M147.01,535.64c-0.29,1.54,0.73,3.03,2.27,3.31c1.54,0.29,3.02-0.73,3.31-2.27
				c0.29-1.54-0.73-3.03-2.27-3.31C148.78,533.08,147.29,534.09,147.01,535.64z"/>
			<path class="st13" d="M146.95,535.93c-0.26,1.38,0.65,2.7,2.03,2.96c1.38,0.26,2.7-0.65,2.96-2.03c0.26-1.38-0.65-2.7-2.03-2.96
				C148.53,533.65,147.21,534.56,146.95,535.93z"/>
		</g>
		<g>
			<path class="st10" d="M159.57,537.98c-0.29,1.54,0.73,3.03,2.27,3.31c1.54,0.29,3.03-0.73,3.31-2.27
				c0.29-1.54-0.73-3.02-2.27-3.31C161.34,535.42,159.86,536.43,159.57,537.98z"/>
			<path class="st13" d="M159.52,538.28c-0.26,1.38,0.65,2.7,2.03,2.96c1.38,0.26,2.7-0.65,2.96-2.03c0.26-1.38-0.65-2.7-2.03-2.96
				C161.1,535.99,159.77,536.9,159.52,538.28z"/>
		</g>
		<g>
			<path class="st10" d="M162.57,521.92c-0.29,1.54,0.73,3.03,2.27,3.31c1.54,0.29,3.03-0.73,3.31-2.27
				c0.29-1.54-0.73-3.03-2.27-3.31C164.34,519.36,162.85,520.38,162.57,521.92z"/>
			<path class="st13" d="M162.51,522.22c-0.26,1.38,0.65,2.7,2.03,2.96c1.38,0.26,2.7-0.65,2.96-2.03c0.26-1.38-0.65-2.7-2.03-2.96
				C164.09,519.93,162.77,520.84,162.51,522.22z"/>
		</g>
		<path class="st9" d="M197.15,468.06l-13.04,70.01c-0.05,0.25-0.28,0.41-0.53,0.37c-0.25-0.05-0.41-0.28-0.36-0.53l13.04-70.01
			c0.05-0.25,0.28-0.41,0.53-0.37C197.03,467.58,197.19,467.82,197.15,468.06z"/>
		<path class="st9" d="M213.3,471.07l-13.04,70.01c-0.05,0.25-0.28,0.41-0.53,0.37c-0.25-0.05-0.41-0.28-0.37-0.53l13.04-70.01
			c0.05-0.25,0.28-0.41,0.53-0.37C213.19,470.59,213.35,470.83,213.3,471.07z"/>
		<path class="st9" d="M229.46,474.08l-13.04,70.01c-0.05,0.25-0.28,0.41-0.53,0.36c-0.25-0.05-0.41-0.28-0.36-0.53l13.04-70.01
			c0.05-0.25,0.28-0.41,0.53-0.37C229.34,473.6,229.51,473.83,229.46,474.08z"/>
		<path class="st9" d="M186.61,524.61c-0.05,0.25-0.28,0.41-0.53,0.37l-10.77-2.01c-0.25-0.05-0.41-0.29-0.37-0.53
			c0.05-0.25,0.29-0.41,0.53-0.37l10.77,2.01C186.5,524.13,186.66,524.37,186.61,524.61z"/>
		<path class="st9" d="M194.64,481.53c-0.05,0.25-0.28,0.41-0.53,0.36l-10.77-2.01c-0.25-0.05-0.41-0.28-0.37-0.53
			c0.05-0.25,0.29-0.41,0.53-0.37l10.77,2.01C194.52,481.04,194.69,481.28,194.64,481.53z"/>
	</g>
	<g style="clip-path:url(#SVGID_00000023268538647271951460000016445461438432458121_);">
		<path class="st14" d="M66.43,440.98c0.31-0.38,0.57-0.8,0.76-1.28c1.05-2.56-0.17-5.5-2.73-6.55c-0.75-0.31-1.52-0.41-2.27-0.36
			c-0.95-1.31-2.27-2.39-3.88-3.05c-4.61-1.9-9.89,0.31-11.79,4.92c-1.9,4.61,0.3,9.89,4.92,11.79c2.5,1.03,5.2,0.85,7.45-0.27
			c0.3,1.61,1.39,3.05,3.02,3.72c2.56,1.05,5.5-0.17,6.55-2.73C69.42,444.86,68.51,442.24,66.43,440.98z"/>
		<path class="st15" d="M87.39,457.2c-0.11-0.04-0.21-0.07-0.32-0.11c0.25-0.39,0.48-0.81,0.67-1.26c1.64-4-0.26-8.57-4.26-10.22
			c-2.52-1.04-5.27-0.66-7.37,0.76c-0.92-1.13-2.13-2.06-3.57-2.65c-4.61-1.9-9.89,0.31-11.79,4.92c-1.83,4.45,0.15,9.51,4.43,11.57
			c-1.02,3.75,0.89,7.76,4.57,9.28c2.73,1.12,5.73,0.59,7.88-1.14c0.83,1.45,2.13,2.65,3.8,3.34c4,1.64,8.57-0.26,10.22-4.26
			C93.3,463.42,91.39,458.84,87.39,457.2z"/>
		<path class="st15" d="M63.56,461.59c-0.11-0.04-0.21-0.07-0.32-0.11c0.25-0.39,0.48-0.81,0.67-1.26c1.64-4-0.26-8.57-4.26-10.22
			c-2.52-1.04-5.27-0.66-7.37,0.76c-0.92-1.13-2.13-2.06-3.57-2.65c-4.61-1.9-9.89,0.31-11.79,4.92c-1.83,4.45,0.15,9.51,4.43,11.57
			c-1.02,3.75,0.89,7.76,4.57,9.28c2.73,1.12,5.73,0.59,7.88-1.14c0.83,1.45,2.13,2.65,3.8,3.34c4,1.64,8.57-0.26,10.22-4.26
			C69.47,467.81,67.56,463.23,63.56,461.59z"/>
		<path class="st16" d="M72.08,464.65c-0.11,0.01-0.22,0.04-0.33,0.05c0.04-0.47,0.04-0.94-0.01-1.43c-0.45-4.3-4.3-7.42-8.6-6.97
			c-2.71,0.28-4.95,1.92-6.12,4.17c-1.35-0.56-2.85-0.8-4.41-0.64c-4.96,0.52-8.56,4.96-8.04,9.92c0.5,4.78,4.65,8.3,9.39,8.08
			c0.89,3.78,4.46,6.41,8.43,5.99c2.94-0.31,5.32-2.2,6.4-4.74c1.42,0.88,3.14,1.32,4.93,1.14c4.3-0.45,7.42-4.3,6.97-8.6
			C80.23,467.32,76.38,464.2,72.08,464.65z"/>
		<path class="st16" d="M58.69,455.61c-0.23-0.09-0.46-0.18-0.7-0.25c-0.06-3.5-2.16-6.79-5.6-8.2c-4.61-1.9-9.89,0.3-11.79,4.92
			c-0.12,0.29-0.23,0.59-0.31,0.89c-2.49,0.32-4.75,1.93-5.78,4.42c-1.52,3.69,0.24,7.91,3.93,9.43c3.16,1.3,6.71,0.19,8.62-2.48
			c0.67,0.14,1.35,0.21,2.01,0.2c0.64,1.93,2.08,3.59,4.11,4.43c3.69,1.52,7.91-0.24,9.43-3.93
			C64.14,461.35,62.38,457.12,58.69,455.61z"/>
		<path class="st14" d="M56.25,443.63c0.31-0.38,0.57-0.8,0.76-1.28c1.05-2.56-0.17-5.5-2.73-6.55c-0.74-0.31-1.52-0.42-2.27-0.36
			c-0.95-1.31-2.27-2.39-3.88-3.05c-4.61-1.9-9.89,0.3-11.79,4.92c-1.9,4.61,0.31,9.89,4.92,11.79c2.5,1.03,5.2,0.85,7.45-0.27
			c0.3,1.61,1.39,3.05,3.02,3.72c2.56,1.05,5.5-0.17,6.55-2.73C59.23,447.5,58.32,444.89,56.25,443.63z"/>
		<path class="st14" d="M85.16,473.46c0.31-0.38,0.57-0.8,0.76-1.28c1.05-2.56-0.17-5.5-2.73-6.55c-0.75-0.31-1.52-0.41-2.27-0.36
			c-0.95-1.31-2.27-2.39-3.88-3.05c-4.61-1.9-9.89,0.31-11.79,4.92c-1.9,4.61,0.31,9.89,4.92,11.79c2.5,1.03,5.2,0.85,7.45-0.27
			c0.3,1.61,1.39,3.05,3.02,3.72c2.56,1.05,5.5-0.17,6.55-2.73C88.14,477.34,87.23,474.72,85.16,473.46z"/>
		<path class="st15" d="M43.32,456.81c-0.08-0.08-0.16-0.16-0.24-0.23c0.4-0.25,0.78-0.54,1.13-0.87c3.17-2.94,3.36-7.89,0.42-11.06
			c-1.85-2-4.5-2.81-7-2.4c-0.36-1.42-1.07-2.76-2.13-3.91c-3.39-3.66-9.11-3.87-12.76-0.48c-3.53,3.27-3.85,8.7-0.83,12.36
			c-2.5,2.98-2.45,7.42,0.26,10.34c2.01,2.17,4.96,2.94,7.63,2.27c0.15,1.67,0.82,3.3,2.05,4.63c2.94,3.17,7.89,3.36,11.06,0.42
			C46.07,464.93,46.26,459.98,43.32,456.81z"/>
		<path class="st15" d="M79.38,441.26c-0.11,0.03-0.21,0.07-0.32,0.1c-0.03-0.47-0.09-0.94-0.21-1.41c-1.04-4.2-5.28-6.76-9.48-5.72
			c-2.64,0.65-4.64,2.58-5.49,4.97c-1.41-0.37-2.94-0.4-4.45-0.03c-4.84,1.2-7.8,6.1-6.6,10.94c1.16,4.67,5.75,7.58,10.42,6.71
			c1.4,3.63,5.3,5.74,9.18,4.78c2.87-0.71,4.97-2.92,5.68-5.58c1.53,0.68,3.29,0.88,5.04,0.44c4.2-1.04,6.76-5.28,5.72-9.48
			C87.82,442.78,83.57,440.22,79.38,441.26z"/>
		<path class="st15" d="M70.87,454.82c-0.11-0.04-0.21-0.07-0.32-0.11c0.25-0.39,0.48-0.81,0.67-1.26c1.64-4-0.26-8.57-4.26-10.22
			c-2.52-1.04-5.27-0.66-7.37,0.76c-0.92-1.13-2.13-2.06-3.57-2.65c-4.61-1.9-9.89,0.31-11.79,4.92c-1.83,4.45,0.15,9.51,4.43,11.57
			c-1.02,3.75,0.89,7.76,4.57,9.28c2.73,1.12,5.73,0.59,7.88-1.14c0.83,1.45,2.13,2.65,3.8,3.34c4,1.64,8.57-0.26,10.22-4.26
			C76.78,461.04,74.87,456.47,70.87,454.82z"/>
		<path class="st16" d="M46.78,451.55c-0.16-0.19-0.33-0.37-0.51-0.54c1.55-3.13,1.2-7.02-1.21-9.86c-3.23-3.8-8.93-4.27-12.73-1.04
			c-0.24,0.21-0.47,0.42-0.69,0.65c-2.36-0.86-5.11-0.47-7.16,1.27c-3.04,2.58-3.42,7.14-0.83,10.18c2.21,2.61,5.87,3.25,8.79,1.76
			c0.53,0.44,1.1,0.81,1.7,1.1c-0.32,2.01,0.2,4.15,1.62,5.82c2.58,3.04,7.14,3.42,10.19,0.83
			C48.98,459.15,49.36,454.59,46.78,451.55z"/>
		<path class="st15" d="M44.54,456.97c-0.16-0.19-0.33-0.37-0.5-0.54c1.55-3.13,1.2-7.02-1.21-9.86c-3.23-3.8-8.93-4.27-12.73-1.04
			c-0.24,0.21-0.47,0.42-0.69,0.65c-2.36-0.86-5.11-0.47-7.16,1.27c-3.04,2.58-3.42,7.14-0.83,10.19c2.21,2.61,5.87,3.25,8.79,1.76
			c0.53,0.44,1.1,0.81,1.7,1.1c-0.32,2.01,0.2,4.15,1.62,5.82c2.58,3.04,7.14,3.42,10.19,0.83
			C46.75,464.57,47.13,460.01,44.54,456.97z"/>
		<path class="st15" d="M60.29,438.08c-0.16-0.19-0.33-0.37-0.51-0.54c1.55-3.13,1.2-7.02-1.21-9.86c-3.23-3.8-8.93-4.27-12.73-1.04
			c-0.24,0.21-0.47,0.42-0.69,0.65c-2.36-0.86-5.1-0.47-7.16,1.27c-3.04,2.58-3.42,7.14-0.83,10.19c2.21,2.61,5.87,3.25,8.79,1.76
			c0.53,0.44,1.1,0.81,1.7,1.1c-0.32,2.01,0.2,4.15,1.62,5.82c2.58,3.04,7.14,3.42,10.18,0.83
			C62.5,445.69,62.88,441.13,60.29,438.08z"/>
		<path class="st16" d="M64.14,448.61c0.31-0.38,0.57-0.8,0.76-1.28c1.05-2.56-0.17-5.5-2.73-6.55c-0.74-0.31-1.52-0.41-2.27-0.36
			c-0.95-1.31-2.27-2.39-3.88-3.05c-4.61-1.9-9.89,0.31-11.79,4.92c-1.9,4.61,0.31,9.89,4.92,11.79c2.5,1.03,5.2,0.85,7.45-0.27
			c0.3,1.61,1.39,3.05,3.02,3.72c2.56,1.05,5.5-0.17,6.55-2.73C67.13,452.48,66.22,449.87,64.14,448.61z"/>
		<path class="st14" d="M76.41,438.33c0.31-0.38,0.57-0.8,0.76-1.28c1.05-2.56-0.17-5.5-2.73-6.55c-0.75-0.31-1.52-0.41-2.27-0.36
			c-0.95-1.31-2.27-2.39-3.88-3.05c-4.61-1.9-9.89,0.31-11.79,4.92c-1.9,4.61,0.3,9.89,4.92,11.79c2.5,1.03,5.2,0.85,7.45-0.27
			c0.3,1.61,1.39,3.05,3.02,3.72c2.56,1.05,5.5-0.17,6.55-2.73C79.4,442.2,78.49,439.59,76.41,438.33z"/>
		<g>
			<g>
				<path class="st3" d="M14.51,455.65l70.63,29.04c0.95,0.39,2.34-0.79,3.1-2.63L14.16,451.6
					C13.4,453.44,13.55,455.26,14.51,455.65z"/>
				<path class="st17" d="M87.89,478.01l-70.63-29.04c-0.95-0.39-2.34,0.79-3.1,2.63l74.08,30.46
					C89,480.21,88.84,478.4,87.89,478.01z"/>
			</g>
			<polygon class="st17" points="15.54,540.85 43.92,467.39 35.43,463.9 8.51,537.96 			"/>
			<polygon class="st18" points="24.46,544.52 55.88,472.31 43.92,467.39 17.11,541.5 			"/>
			<polygon class="st18" points="17.11,541.5 43.92,467.39 15.54,540.85 			"/>
			<polygon class="st18" points="6.88,537.29 35.43,463.9 25.72,459.91 1.14,534.93 			"/>
			<polygon class="st18" points="8.51,537.96 35.43,463.9 6.88,537.29 			"/>
			<polygon class="st18" points="18.42,456.91 16.28,456.03 -7.46,531.39 -4.3,532.69 			"/>
			<polygon class="st17" points="1.14,534.93 25.72,459.91 18.42,456.91 -4.3,532.69 			"/>
			<polygon class="st17" points="34.85,548.79 66.18,476.55 55.88,472.31 24.46,544.52 			"/>
			<polygon class="st17" points="47.33,553.92 83.53,483.68 75.9,480.54 41.94,551.71 			"/>
			<polygon class="st18" points="40.59,551.15 75.9,480.54 66.18,476.55 34.85,548.79 			"/>
			<polygon class="st18" points="41.94,551.71 75.9,480.54 40.59,551.15 			"/>
			<polygon class="st18" points="83.6,483.53 83.53,483.68 84.92,484.25 47.75,554.1 49.18,554.68 85.49,484.49 			"/>
			<polygon class="st18" points="47.75,554.1 84.92,484.25 83.53,483.68 47.33,553.92 			"/>
			<polygon class="st17" points="47.75,554.1 47.33,553.92 41.94,551.71 40.59,551.15 34.85,548.79 24.46,544.52 17.11,541.5 
				15.54,540.85 8.51,537.96 6.88,537.29 1.14,534.93 -4.3,532.69 -7.46,531.39 -9.79,538.8 -6.53,540.14 -1.28,542.3 5.83,545.31 
				5.86,545.25 12.73,548.13 12.73,548.14 14.45,548.85 21.34,551.69 31.77,555.89 38.57,558.77 38.6,558.69 43.77,560.82 
				43.73,560.89 45.61,561.58 49.18,554.68 			"/>
		</g>
	</g>
	<g style="clip-path:url(#SVGID_00000023268538647271951460000016445461438432458121_);">
		<path class="st19" d="M280.83,489.05c-0.42-0.25-0.55-0.8-0.3-1.22c3.17-5.24,1.48-12.08-3.76-15.25c-0.42-0.25-0.55-0.8-0.3-1.22
			l2.07-3.42c0.25-0.42,0.8-0.56,1.22-0.3c1.47,0.89,3.38,0.42,4.27-1.05c0.89-1.47,0.42-3.38-1.05-4.27
			c-0.42-0.25-0.55-0.8-0.3-1.22l2.07-3.42c0.25-0.42,0.8-0.56,1.22-0.3c1.47,0.89,3.38,0.41,4.27-1.05
			c0.89-1.47,0.42-3.38-1.05-4.27c-0.42-0.25-0.55-0.8-0.3-1.22l2.07-3.42c0.25-0.42,0.8-0.56,1.22-0.3
			c1.47,0.89,3.38,0.41,4.27-1.05c0.89-1.47,0.42-3.38-1.05-4.27c-0.42-0.25-0.55-0.8-0.3-1.22l2.07-3.42
			c0.25-0.42,0.8-0.55,1.22-0.3c5.24,3.17,12.08,1.48,15.25-3.76c0.25-0.42,0.8-0.55,1.22-0.3l71.88,43.44
			c0.42,0.25,0.55,0.8,0.3,1.22c-3.17,5.24-1.48,12.09,3.76,15.25c0.42,0.25,0.55,0.8,0.3,1.22l-2.07,3.42
			c-0.25,0.42-0.8,0.55-1.22,0.3c-1.47-0.89-3.38-0.41-4.27,1.05c-0.89,1.47-0.42,3.38,1.05,4.27c0.42,0.25,0.56,0.8,0.3,1.22
			l-2.07,3.42c-0.25,0.42-0.8,0.56-1.22,0.3c-1.47-0.89-3.38-0.41-4.27,1.05c-0.89,1.47-0.41,3.38,1.05,4.27
			c0.42,0.25,0.55,0.8,0.3,1.22l-2.07,3.42c-0.25,0.42-0.8,0.56-1.22,0.3c-1.47-0.89-3.38-0.42-4.27,1.05
			c-0.89,1.47-0.41,3.38,1.05,4.27c0.42,0.25,0.55,0.8,0.3,1.22l-2.07,3.42c-0.25,0.42-0.8,0.55-1.22,0.3
			c-5.24-3.17-12.09-1.48-15.25,3.76c-0.25,0.42-0.8,0.55-1.22,0.3L280.83,489.05z"/>
		<path class="st20" d="M370.35,518.76c1.14-1.89,3.6-2.5,5.49-1.35l2.07-3.42c-1.89-1.14-2.5-3.6-1.35-5.49
			c1.14-1.89,3.6-2.5,5.49-1.35l2.07-3.42c-1.89-1.14-2.5-3.6-1.35-5.49c1.14-1.89,3.6-2.5,5.49-1.35l2.07-3.42
			c-5.67-3.43-7.49-10.8-4.06-16.47l-71.88-43.44c-3.43,5.67-10.8,7.49-16.47,4.06l-2.07,3.42c1.89,1.14,2.5,3.6,1.35,5.49
			c-1.14,1.89-3.6,2.5-5.49,1.35l-2.07,3.42c1.89,1.14,2.5,3.6,1.35,5.49c-1.14,1.89-3.6,2.5-5.49,1.35l-2.07,3.42
			c1.89,1.14,2.5,3.6,1.35,5.49c-1.14,1.89-3.6,2.5-5.49,1.35l-2.07,3.42c5.67,3.43,7.49,10.8,4.06,16.47l71.88,43.44
			c3.43-5.67,10.8-7.49,16.47-4.06l2.07-3.42C369.82,523.11,369.21,520.65,370.35,518.76z"/>
		<g>
			<g>
				<path class="st9" d="M329.19,456.54l-1.08,1.99l-0.23-0.14c0.16-0.37,0.25-0.65,0.26-0.84c0.02-0.31-0.05-0.58-0.19-0.82
					c-0.14-0.24-0.38-0.46-0.72-0.66l-1.16-0.7l-3.8,6.29c-0.31,0.51-0.44,0.86-0.41,1.05c0.05,0.26,0.24,0.49,0.56,0.68l0.29,0.17
					l-0.14,0.22l-3.49-2.11l0.14-0.22l0.29,0.18c0.35,0.21,0.66,0.26,0.93,0.13c0.17-0.08,0.39-0.34,0.67-0.81l3.8-6.29l-0.99-0.6
					c-0.38-0.23-0.68-0.37-0.87-0.41c-0.26-0.05-0.53-0.01-0.81,0.12c-0.28,0.13-0.55,0.37-0.8,0.73l-0.23-0.14l1.27-1.87
					L329.19,456.54z"/>
				<path class="st9" d="M328.59,467.12l-0.14,0.22l-3.53-2.13l0.14-0.22l0.29,0.18c0.34,0.21,0.65,0.26,0.92,0.15
					c0.18-0.07,0.41-0.35,0.71-0.85l3.22-5.32c0.25-0.42,0.39-0.71,0.42-0.87c0.02-0.13-0.01-0.26-0.09-0.41
					c-0.12-0.2-0.28-0.37-0.47-0.48l-0.29-0.18l0.14-0.22l3.53,2.13l-0.14,0.22l-0.3-0.18c-0.34-0.2-0.64-0.25-0.92-0.15
					c-0.18,0.07-0.42,0.35-0.72,0.84l-3.22,5.32c-0.25,0.42-0.39,0.71-0.42,0.87c-0.02,0.13,0.01,0.26,0.1,0.42
					c0.12,0.2,0.27,0.36,0.46,0.48L328.59,467.12z"/>
				<path class="st9" d="M341.34,463.63l-1.5,2.91l-0.19-0.11c0.26-0.99,0.26-1.81,0.02-2.46c-0.24-0.65-0.69-1.17-1.34-1.57
					c-0.55-0.33-1.12-0.49-1.73-0.48c-0.61,0.01-1.22,0.24-1.84,0.7c-0.62,0.45-1.2,1.13-1.75,2.04c-0.45,0.75-0.72,1.46-0.81,2.15
					c-0.09,0.69,0.01,1.33,0.32,1.91c0.3,0.58,0.76,1.06,1.38,1.43c0.53,0.32,1.08,0.49,1.62,0.51c0.55,0.02,1.27-0.16,2.17-0.55
					l0.11,0.24c-0.86,0.48-1.66,0.73-2.42,0.74c-0.76,0.01-1.51-0.22-2.27-0.68c-1.36-0.82-2.12-1.97-2.25-3.44
					c-0.1-1.09,0.15-2.15,0.77-3.17c0.5-0.82,1.14-1.47,1.92-1.93c0.78-0.47,1.61-0.69,2.49-0.68c0.88,0.01,1.7,0.25,2.46,0.71
					c0.6,0.36,1.09,0.86,1.5,1.5c0.12,0.19,0.21,0.31,0.28,0.35c0.11,0.07,0.23,0.09,0.36,0.06c0.17-0.05,0.34-0.15,0.5-0.32
					L341.34,463.63z"/>
				<path class="st9" d="M343.53,470.22l1.21,4.86c0.2,0.8,0.42,1.4,0.66,1.79c0.24,0.39,0.53,0.71,0.87,0.95l-0.14,0.22l-3.92-2.37
					l0.14-0.22c0.24,0.14,0.43,0.21,0.58,0.19c0.15-0.02,0.26-0.07,0.31-0.17c0.06-0.1,0.09-0.2,0.1-0.3
					c0.01-0.1-0.03-0.32-0.12-0.66l-1.14-4.53l-1.6,2.65c-0.25,0.42-0.39,0.71-0.42,0.87c-0.02,0.13,0.01,0.26,0.1,0.42
					c0.12,0.2,0.27,0.36,0.46,0.48l0.28,0.17l-0.14,0.22l-3.51-2.12l0.14-0.22l0.29,0.18c0.34,0.21,0.65,0.26,0.92,0.15
					c0.18-0.07,0.41-0.35,0.71-0.85l3.22-5.32c0.25-0.42,0.39-0.71,0.42-0.88c0.02-0.12-0.01-0.26-0.09-0.41
					c-0.12-0.2-0.28-0.37-0.47-0.48l-0.29-0.18l0.14-0.22l3.51,2.12l-0.14,0.22l-0.28-0.17c-0.19-0.11-0.4-0.18-0.64-0.19
					c-0.16-0.01-0.31,0.03-0.44,0.13c-0.13,0.1-0.31,0.35-0.56,0.76l-1.52,2.52c0.13-0.03,0.56-0.12,1.3-0.27
					c1.87-0.37,3.04-0.67,3.51-0.89c0.21-0.1,0.35-0.21,0.42-0.33c0.06-0.09,0.06-0.2,0.02-0.32c-0.04-0.12-0.16-0.25-0.37-0.37
					l-0.19-0.11l0.14-0.22l3.02,1.83l-0.14,0.22c-0.18-0.1-0.36-0.18-0.53-0.22c-0.17-0.04-0.4-0.06-0.69-0.07
					c-0.29,0-0.67,0.05-1.15,0.15c-0.14,0.03-0.8,0.19-1.99,0.5L343.53,470.22z"/>
				<path class="st9" d="M353.35,471.76l-1.97,3.26l1.81,1.09c0.47,0.28,0.83,0.4,1.07,0.36c0.32-0.06,0.64-0.32,0.95-0.77
					l0.22,0.14l-1.73,2.87l-0.23-0.14c0.19-0.43,0.28-0.73,0.3-0.87c0.01-0.19-0.04-0.37-0.16-0.55c-0.12-0.18-0.35-0.38-0.69-0.58
					l-1.81-1.09l-1.64,2.72c-0.22,0.36-0.34,0.6-0.35,0.69c-0.02,0.1,0,0.19,0.06,0.29c0.05,0.1,0.19,0.21,0.42,0.35l1.4,0.84
					c0.47,0.28,0.82,0.45,1.07,0.52c0.25,0.06,0.53,0.06,0.84-0.02c0.4-0.1,0.89-0.32,1.46-0.67l0.24,0.15l-1.96,1.64l-6.35-3.84
					l0.14-0.22l0.29,0.18c0.19,0.12,0.41,0.18,0.64,0.19c0.17,0.01,0.32-0.03,0.44-0.13c0.12-0.1,0.31-0.35,0.55-0.75l3.24-5.35
					c0.32-0.52,0.46-0.88,0.43-1.06c-0.05-0.25-0.24-0.48-0.58-0.68l-0.29-0.18l0.14-0.22l6.35,3.84l-1,1.86l-0.24-0.14
					c0.18-0.49,0.26-0.84,0.26-1.06c-0.01-0.22-0.08-0.44-0.23-0.65c-0.13-0.16-0.39-0.36-0.8-0.61L353.35,471.76z"/>
				<path class="st9" d="M365.82,478.68l-1.08,1.99l-0.23-0.14c0.16-0.37,0.25-0.65,0.26-0.84c0.02-0.31-0.05-0.58-0.19-0.82
					c-0.14-0.24-0.38-0.46-0.72-0.67l-1.16-0.7l-3.8,6.29c-0.31,0.51-0.44,0.86-0.41,1.05c0.05,0.26,0.24,0.49,0.56,0.68l0.29,0.17
					l-0.14,0.22l-3.49-2.11l0.14-0.22l0.29,0.18c0.35,0.21,0.66,0.25,0.93,0.13c0.17-0.08,0.39-0.34,0.67-0.81l3.8-6.29l-0.99-0.6
					c-0.38-0.23-0.68-0.37-0.87-0.41c-0.26-0.05-0.53-0.01-0.81,0.12c-0.28,0.13-0.55,0.37-0.8,0.73l-0.23-0.14l1.26-1.87
					L365.82,478.68z"/>
			</g>
		</g>
		<g>
			<g>
				<path class="st9" d="M317.03,464.58l-1.99,3.29l-0.27-0.16c0.31-0.98,0.33-1.87,0.05-2.67c-0.28-0.79-0.78-1.41-1.49-1.84
					c-0.59-0.36-1.24-0.52-1.94-0.47c-0.7,0.04-1.33,0.27-1.89,0.68c-0.72,0.53-1.34,1.22-1.86,2.08c-0.51,0.85-0.87,1.69-1.08,2.51
					c-0.21,0.83-0.19,1.56,0.05,2.19c0.24,0.63,0.73,1.17,1.45,1.61c0.6,0.36,1.22,0.56,1.88,0.6c0.65,0.04,1.45-0.09,2.39-0.4
					l-0.49,0.82c-0.87,0.23-1.66,0.3-2.39,0.2c-0.73-0.1-1.47-0.38-2.24-0.85c-1.01-0.61-1.79-1.36-2.33-2.24
					c-0.54-0.88-0.79-1.83-0.76-2.85c0.03-1.02,0.31-1.96,0.83-2.81c0.55-0.9,1.3-1.62,2.27-2.14c0.96-0.53,1.98-0.77,3.06-0.73
					c1.08,0.04,2.06,0.33,2.97,0.88c0.67,0.4,1.28,0.97,1.85,1.71c0.33,0.43,0.55,0.68,0.67,0.75c0.15,0.09,0.31,0.11,0.49,0.07
					c0.18-0.04,0.35-0.17,0.53-0.39L317.03,464.58z"/>
				<path class="st9" d="M317.35,477.67l-0.16,0.26l-4.96-3l0.16-0.26l0.31,0.19c0.27,0.17,0.53,0.25,0.75,0.25
					c0.16,0.01,0.32-0.05,0.48-0.17c0.12-0.08,0.32-0.36,0.61-0.83l3.77-6.24c0.29-0.48,0.45-0.8,0.47-0.96
					c0.02-0.15-0.02-0.32-0.12-0.51c-0.1-0.18-0.29-0.36-0.55-0.52l-0.32-0.19l0.16-0.26l4.96,3l-0.16,0.26l-0.31-0.19
					c-0.28-0.17-0.53-0.25-0.75-0.25c-0.16-0.01-0.32,0.05-0.49,0.16c-0.12,0.08-0.32,0.36-0.61,0.83l-3.77,6.24
					c-0.29,0.48-0.45,0.8-0.47,0.96c-0.02,0.15,0.02,0.32,0.12,0.51c0.1,0.19,0.28,0.36,0.55,0.52L317.35,477.67z"/>
				<path class="st9" d="M326.82,470.8l1.12,8.71l2.46-4.08c0.34-0.57,0.5-1,0.45-1.3c-0.06-0.41-0.36-0.76-0.89-1.07l0.16-0.26
					l3.13,1.89l-0.16,0.26c-0.43-0.19-0.74-0.29-0.93-0.29c-0.19,0-0.37,0.07-0.56,0.2c-0.19,0.14-0.42,0.43-0.69,0.88l-4.77,7.9
					l-0.24-0.14l-1.64-11.77l-3.64,6.03c-0.33,0.55-0.43,0.99-0.29,1.33c0.13,0.34,0.36,0.61,0.68,0.8l0.22,0.14l-0.16,0.26
					l-3.36-2.03l0.16-0.26c0.52,0.31,0.95,0.42,1.29,0.34c0.33-0.09,0.65-0.38,0.95-0.88l4.05-6.69l-0.05-0.37
					c-0.05-0.37-0.13-0.65-0.23-0.82c-0.11-0.17-0.3-0.35-0.58-0.53l0.16-0.26L326.82,470.8z"/>
				<path class="st9" d="M337.17,477.8l-2.33,3.86l0.19,0.11c0.6,0.36,1.15,0.44,1.65,0.22c0.5-0.21,1.01-0.67,1.53-1.36l0.27,0.16
					l-3,4.97l-0.27-0.16c0.27-0.57,0.42-1.09,0.45-1.54c0.03-0.45-0.04-0.81-0.21-1.07c-0.17-0.26-0.48-0.53-0.93-0.8l-1.61,2.67
					c-0.32,0.52-0.49,0.85-0.51,1c-0.03,0.14,0,0.29,0.07,0.44c0.08,0.15,0.25,0.3,0.52,0.47l0.57,0.34
					c0.89,0.54,1.72,0.76,2.5,0.67c0.78-0.09,1.54-0.48,2.28-1.18l0.26,0.16l-2.25,2.76l-8.2-4.95l0.16-0.26l0.31,0.19
					c0.28,0.17,0.53,0.25,0.75,0.26c0.16,0.01,0.32-0.05,0.48-0.17c0.12-0.08,0.32-0.36,0.61-0.83l3.77-6.24
					c0.26-0.43,0.41-0.7,0.44-0.81c0.05-0.19,0.04-0.37-0.03-0.53c-0.1-0.24-0.3-0.45-0.61-0.64l-0.31-0.19l0.16-0.26l7.94,4.8
					l-1.7,2.8l-0.27-0.16c0.28-0.77,0.39-1.37,0.32-1.82c-0.06-0.45-0.28-0.87-0.64-1.29c-0.21-0.24-0.68-0.58-1.39-1.01
					L337.17,477.8z"/>
				<path class="st9" d="M346.2,491.05l6.35-4.7l3.86,2.33l-0.16,0.26l-0.31-0.19c-0.28-0.17-0.53-0.26-0.76-0.26
					c-0.16,0-0.32,0.05-0.48,0.16c-0.12,0.08-0.32,0.36-0.61,0.83l-3.78,6.25c-0.29,0.49-0.45,0.8-0.47,0.96
					c-0.02,0.15,0.02,0.32,0.12,0.51c0.1,0.19,0.29,0.36,0.55,0.52l0.31,0.19l-0.16,0.26l-4.95-2.99l0.16-0.26l0.31,0.19
					c0.28,0.17,0.53,0.26,0.76,0.26c0.16,0.01,0.32-0.05,0.48-0.17c0.12-0.08,0.32-0.36,0.61-0.83l4.25-7.03l-8.87,6.45l-0.17-0.1
					l1.5-10.82l-4.04,6.68c-0.28,0.47-0.44,0.76-0.48,0.88c-0.08,0.27-0.06,0.54,0.05,0.81c0.11,0.27,0.39,0.54,0.82,0.8l-0.16,0.26
					l-3.24-1.96l0.16-0.26l0.1,0.06c0.21,0.13,0.42,0.22,0.65,0.25c0.23,0.04,0.42,0.02,0.59-0.04c0.17-0.06,0.34-0.19,0.53-0.38
					c0.04-0.05,0.19-0.28,0.45-0.71l3.63-6c0.29-0.48,0.45-0.8,0.47-0.95c0.02-0.15-0.02-0.32-0.12-0.51
					c-0.1-0.19-0.29-0.36-0.55-0.52l-0.3-0.18l0.16-0.26l3.87,2.34L346.2,491.05z"/>
				<path class="st9" d="M358.53,499.23l-3.35-2.02l-0.96,0.68c-0.32,0.23-0.54,0.44-0.66,0.64c-0.16,0.27-0.17,0.53-0.03,0.78
					c0.08,0.15,0.36,0.39,0.83,0.73l-0.16,0.26l-3.15-1.91l0.16-0.26c0.37,0.15,0.74,0.18,1.09,0.08c0.36-0.1,0.92-0.41,1.68-0.94
					l7.97-5.52l0.13,0.08l-1.28,9.84c-0.12,0.93-0.13,1.56-0.04,1.88c0.07,0.24,0.24,0.46,0.52,0.66l-0.16,0.26l-4.59-2.77
					l0.16-0.26l0.19,0.11c0.37,0.22,0.66,0.33,0.87,0.32c0.15-0.01,0.26-0.09,0.35-0.23c0.05-0.08,0.09-0.18,0.11-0.28
					c0.02-0.05,0.05-0.26,0.11-0.65L358.53,499.23z M358.6,498.57l0.56-4.12l-3.43,2.39L358.6,498.57z"/>
			</g>
		</g>
		<g>
			<g>
				<polygon class="st21" points="316.36,481.64 316.05,485.17 318.79,487.42 315.34,488.22 314.05,491.52 312.21,488.49 
					308.68,488.28 311,485.6 310.1,482.17 313.37,483.55 				"/>
				<polygon class="st21" points="329.49,489.58 329.19,493.11 331.93,495.36 328.48,496.17 327.18,499.47 325.35,496.43 
					321.81,496.22 324.13,493.54 323.24,490.11 326.51,491.49 				"/>
				<polygon class="st21" points="342.63,497.52 342.33,501.05 345.07,503.3 341.62,504.11 340.32,507.41 338.49,504.37 
					334.95,504.16 337.27,501.48 336.38,498.05 339.65,499.43 				"/>
			</g>
		</g>
		<path class="st22" d="M352.76,526.82l-66.93-40.46l28.96-47.92l66.93,40.46L352.76,526.82z M288.88,485.61l63.13,38.16
			l26.66-44.11l-63.13-38.16L288.88,485.61z"/>
	</g>
	<g style="clip-path:url(#SVGID_00000023268538647271951460000016445461438432458121_);">
		<path class="st19" d="M119.7,12.16c-0.42-0.25-0.55-0.8-0.3-1.22c3.17-5.24,1.48-12.08-3.76-15.25c-0.42-0.25-0.55-0.8-0.3-1.22
			l2.07-3.42c0.25-0.42,0.8-0.56,1.22-0.3c1.47,0.89,3.38,0.42,4.27-1.05c0.89-1.47,0.42-3.38-1.05-4.27
			c-0.42-0.25-0.55-0.8-0.3-1.22l2.07-3.42c0.25-0.42,0.8-0.56,1.22-0.3c1.47,0.89,3.38,0.41,4.27-1.05
			c0.89-1.47,0.42-3.38-1.05-4.27c-0.42-0.25-0.55-0.8-0.3-1.22l2.07-3.42c0.25-0.42,0.8-0.56,1.22-0.3
			c1.47,0.89,3.38,0.41,4.27-1.05c0.89-1.47,0.42-3.38-1.05-4.27c-0.42-0.25-0.55-0.8-0.3-1.22l2.07-3.42
			c0.25-0.42,0.8-0.55,1.22-0.3c5.24,3.17,12.08,1.48,15.25-3.76c0.25-0.42,0.8-0.55,1.22-0.3L225.6-0.68
			c0.42,0.25,0.55,0.8,0.3,1.22c-3.17,5.24-1.48,12.09,3.76,15.25c0.42,0.25,0.55,0.8,0.3,1.22l-2.07,3.42
			c-0.25,0.42-0.8,0.55-1.22,0.3c-1.47-0.89-3.38-0.41-4.27,1.05c-0.89,1.47-0.42,3.38,1.05,4.27c0.42,0.25,0.56,0.8,0.3,1.22
			l-2.07,3.42c-0.25,0.42-0.8,0.56-1.22,0.3c-1.47-0.89-3.38-0.41-4.27,1.05c-0.89,1.47-0.41,3.38,1.05,4.27
			c0.42,0.25,0.55,0.8,0.3,1.22l-2.07,3.42c-0.25,0.42-0.8,0.56-1.22,0.3c-1.47-0.89-3.38-0.42-4.27,1.05
			c-0.89,1.47-0.41,3.38,1.05,4.27c0.42,0.25,0.55,0.8,0.3,1.22l-2.07,3.42c-0.25,0.42-0.8,0.55-1.22,0.3
			c-5.24-3.17-12.09-1.48-15.25,3.76c-0.25,0.42-0.8,0.55-1.22,0.3L119.7,12.16z"/>
		<path class="st20" d="M209.23,41.87c1.14-1.89,3.6-2.5,5.49-1.35l2.07-3.42c-1.89-1.14-2.5-3.6-1.35-5.49
			c1.14-1.89,3.6-2.5,5.49-1.35l2.07-3.42c-1.89-1.14-2.5-3.6-1.35-5.49c1.14-1.89,3.6-2.5,5.49-1.35l2.07-3.42
			c-5.67-3.43-7.49-10.8-4.06-16.47l-71.88-43.44c-3.43,5.67-10.8,7.49-16.47,4.06l-2.07,3.42c1.89,1.14,2.5,3.6,1.35,5.49
			c-1.14,1.89-3.6,2.5-5.49,1.35l-2.07,3.42c1.89,1.14,2.5,3.6,1.35,5.49c-1.14,1.89-3.6,2.5-5.49,1.35l-2.07,3.42
			c1.89,1.14,2.5,3.6,1.35,5.49c-1.14,1.89-3.6,2.5-5.49,1.35l-2.07,3.42c5.67,3.43,7.49,10.8,4.06,16.47l71.88,43.44
			c3.43-5.67,10.8-7.49,16.47-4.06l2.07-3.42C208.69,46.21,208.08,43.76,209.23,41.87z"/>
		<g>
			<g>
				<path class="st9" d="M168.07-20.35l-1.08,1.99l-0.23-0.14c0.16-0.37,0.25-0.65,0.26-0.84c0.02-0.31-0.05-0.58-0.19-0.82
					c-0.14-0.24-0.38-0.46-0.72-0.66l-1.16-0.7l-3.8,6.29c-0.31,0.51-0.44,0.86-0.41,1.05c0.05,0.26,0.24,0.49,0.56,0.68l0.29,0.17
					l-0.14,0.22l-3.49-2.11l0.14-0.22l0.29,0.18c0.35,0.21,0.66,0.26,0.93,0.13c0.17-0.08,0.39-0.34,0.67-0.81l3.8-6.29l-0.99-0.6
					c-0.38-0.23-0.68-0.37-0.87-0.41c-0.26-0.05-0.53-0.01-0.81,0.12c-0.28,0.13-0.55,0.37-0.8,0.73l-0.23-0.14l1.27-1.87
					L168.07-20.35z"/>
				<path class="st9" d="M167.46-9.78l-0.14,0.22l-3.53-2.13l0.14-0.22l0.29,0.18c0.34,0.21,0.65,0.26,0.92,0.15
					c0.18-0.07,0.41-0.35,0.71-0.85l3.22-5.32c0.25-0.42,0.39-0.71,0.42-0.87c0.02-0.13-0.01-0.26-0.09-0.41
					c-0.12-0.2-0.28-0.37-0.47-0.48l-0.29-0.18l0.14-0.22l3.53,2.13l-0.14,0.22l-0.3-0.18c-0.34-0.2-0.64-0.25-0.92-0.15
					c-0.18,0.07-0.42,0.35-0.72,0.84l-3.22,5.32c-0.25,0.42-0.39,0.71-0.42,0.87c-0.02,0.13,0.01,0.26,0.1,0.42
					c0.12,0.2,0.27,0.36,0.46,0.48L167.46-9.78z"/>
				<path class="st9" d="M180.21-13.27l-1.5,2.91l-0.19-0.11c0.26-0.99,0.26-1.81,0.02-2.46c-0.24-0.65-0.69-1.17-1.34-1.57
					c-0.55-0.33-1.12-0.49-1.73-0.48c-0.61,0.01-1.22,0.24-1.84,0.7c-0.62,0.45-1.2,1.13-1.75,2.04c-0.45,0.75-0.72,1.46-0.81,2.15
					c-0.09,0.69,0.01,1.33,0.32,1.91c0.3,0.58,0.76,1.06,1.38,1.43c0.53,0.32,1.08,0.49,1.62,0.51c0.55,0.02,1.27-0.16,2.17-0.55
					l0.11,0.24c-0.86,0.48-1.66,0.73-2.42,0.74c-0.76,0.01-1.51-0.22-2.27-0.68c-1.36-0.82-2.12-1.97-2.25-3.44
					c-0.1-1.09,0.15-2.15,0.77-3.17c0.5-0.82,1.14-1.47,1.92-1.93c0.78-0.47,1.61-0.69,2.49-0.68c0.88,0.01,1.7,0.25,2.46,0.71
					c0.6,0.36,1.09,0.86,1.5,1.5c0.12,0.19,0.21,0.31,0.28,0.35c0.11,0.07,0.23,0.09,0.36,0.06c0.17-0.05,0.34-0.15,0.5-0.32
					L180.21-13.27z"/>
				<path class="st9" d="M182.41-6.67l1.21,4.86c0.2,0.8,0.42,1.4,0.66,1.79c0.24,0.39,0.53,0.71,0.87,0.95l-0.14,0.22l-3.92-2.37
					l0.14-0.22c0.24,0.14,0.43,0.21,0.58,0.19c0.15-0.02,0.26-0.07,0.31-0.17c0.06-0.1,0.09-0.2,0.1-0.3
					c0.01-0.1-0.03-0.32-0.12-0.66l-1.14-4.53l-1.6,2.65c-0.25,0.42-0.39,0.71-0.42,0.87c-0.02,0.13,0.01,0.26,0.1,0.42
					c0.12,0.2,0.27,0.36,0.46,0.48l0.28,0.17l-0.14,0.22l-3.51-2.12l0.14-0.22l0.29,0.18c0.34,0.21,0.65,0.26,0.92,0.15
					c0.18-0.07,0.41-0.35,0.71-0.85l3.22-5.32c0.25-0.42,0.39-0.71,0.42-0.88c0.02-0.12-0.01-0.26-0.09-0.41
					c-0.12-0.2-0.28-0.37-0.47-0.48l-0.29-0.18l0.14-0.22l3.51,2.12l-0.14,0.22l-0.28-0.17c-0.19-0.11-0.4-0.18-0.64-0.19
					c-0.16-0.01-0.31,0.03-0.44,0.13c-0.13,0.1-0.31,0.35-0.56,0.76l-1.52,2.52c0.13-0.03,0.56-0.12,1.3-0.27
					c1.87-0.37,3.04-0.67,3.51-0.89c0.21-0.1,0.35-0.21,0.42-0.33c0.06-0.09,0.06-0.2,0.02-0.32c-0.04-0.12-0.16-0.25-0.37-0.37
					l-0.19-0.11l0.14-0.22l3.02,1.83l-0.14,0.22c-0.18-0.1-0.36-0.18-0.53-0.22c-0.17-0.04-0.4-0.06-0.69-0.07
					c-0.29,0-0.67,0.05-1.15,0.15c-0.14,0.03-0.8,0.19-1.99,0.5L182.41-6.67z"/>
				<path class="st9" d="M192.22-5.14l-1.97,3.26l1.81,1.09c0.47,0.28,0.83,0.4,1.07,0.36c0.32-0.06,0.64-0.32,0.95-0.77l0.22,0.14
					l-1.73,2.87l-0.23-0.14c0.19-0.43,0.28-0.73,0.3-0.87c0.01-0.19-0.04-0.37-0.16-0.55c-0.12-0.18-0.35-0.38-0.69-0.58l-1.81-1.09
					l-1.64,2.72c-0.22,0.36-0.34,0.6-0.35,0.69c-0.02,0.1,0,0.19,0.06,0.29c0.05,0.1,0.19,0.21,0.42,0.35l1.4,0.84
					c0.47,0.28,0.82,0.45,1.07,0.52c0.25,0.06,0.53,0.06,0.84-0.02c0.4-0.1,0.89-0.32,1.46-0.67l0.24,0.15l-1.96,1.64l-6.35-3.84
					l0.14-0.22l0.29,0.18c0.19,0.12,0.41,0.18,0.64,0.19c0.17,0.01,0.32-0.03,0.44-0.13c0.12-0.1,0.31-0.35,0.55-0.75l3.24-5.35
					c0.32-0.52,0.46-0.88,0.43-1.06c-0.05-0.25-0.24-0.48-0.58-0.68l-0.29-0.18l0.14-0.22l6.35,3.84l-1,1.86l-0.24-0.14
					c0.18-0.49,0.26-0.84,0.26-1.06c-0.01-0.22-0.08-0.44-0.23-0.65c-0.13-0.16-0.39-0.36-0.8-0.61L192.22-5.14z"/>
				<path class="st9" d="M204.69,1.78l-1.08,1.99l-0.23-0.14c0.16-0.37,0.25-0.65,0.26-0.84c0.02-0.31-0.05-0.58-0.19-0.82
					c-0.14-0.24-0.38-0.46-0.72-0.67l-1.16-0.7l-3.8,6.29c-0.31,0.51-0.44,0.86-0.41,1.05c0.05,0.26,0.24,0.49,0.56,0.68l0.29,0.17
					l-0.14,0.22l-3.49-2.11l0.14-0.22L195,6.87c0.35,0.21,0.66,0.25,0.93,0.13c0.17-0.08,0.39-0.34,0.67-0.81l3.8-6.29l-0.99-0.6
					c-0.39-0.23-0.68-0.37-0.87-0.41c-0.26-0.05-0.53-0.01-0.81,0.12c-0.28,0.13-0.55,0.37-0.8,0.73l-0.23-0.14l1.26-1.87
					L204.69,1.78z"/>
			</g>
		</g>
		<g>
			<g>
				<path class="st9" d="M155.9-12.31l-1.99,3.29l-0.27-0.16c0.31-0.98,0.33-1.87,0.05-2.67c-0.28-0.79-0.78-1.41-1.49-1.84
					c-0.59-0.36-1.24-0.52-1.94-0.47c-0.7,0.04-1.33,0.27-1.89,0.68c-0.72,0.53-1.34,1.22-1.86,2.08c-0.51,0.85-0.87,1.69-1.08,2.51
					c-0.21,0.83-0.19,1.56,0.05,2.19c0.24,0.63,0.73,1.17,1.45,1.61c0.6,0.36,1.22,0.56,1.88,0.6c0.65,0.04,1.45-0.09,2.39-0.4
					l-0.49,0.82c-0.87,0.23-1.66,0.3-2.39,0.2c-0.73-0.1-1.47-0.38-2.24-0.85c-1.01-0.61-1.79-1.36-2.33-2.24
					c-0.54-0.88-0.79-1.83-0.76-2.85c0.03-1.02,0.31-1.96,0.83-2.81c0.55-0.9,1.3-1.62,2.27-2.14c0.96-0.53,1.98-0.77,3.06-0.73
					c1.08,0.04,2.06,0.33,2.97,0.88c0.67,0.4,1.28,0.97,1.85,1.71c0.33,0.43,0.55,0.68,0.67,0.75c0.15,0.09,0.31,0.11,0.49,0.07
					c0.18-0.04,0.35-0.17,0.53-0.39L155.9-12.31z"/>
				<path class="st9" d="M156.22,0.77l-0.16,0.26l-4.96-3l0.16-0.26l0.31,0.19c0.27,0.17,0.53,0.25,0.75,0.25
					c0.16,0.01,0.32-0.05,0.48-0.17c0.12-0.08,0.32-0.36,0.61-0.83l3.77-6.24c0.29-0.48,0.45-0.8,0.47-0.96
					c0.02-0.15-0.02-0.32-0.12-0.51c-0.1-0.18-0.29-0.36-0.55-0.52l-0.32-0.19l0.16-0.26l4.96,3l-0.16,0.26l-0.31-0.19
					c-0.28-0.17-0.53-0.25-0.75-0.25c-0.16-0.01-0.32,0.05-0.49,0.16c-0.12,0.08-0.32,0.36-0.61,0.83L155.7-1.4
					c-0.29,0.48-0.45,0.8-0.47,0.96c-0.02,0.15,0.02,0.32,0.12,0.51c0.1,0.19,0.28,0.36,0.55,0.52L156.22,0.77z"/>
				<path class="st9" d="M165.69-6.1l1.12,8.71l2.46-4.08c0.34-0.57,0.5-1,0.45-1.3c-0.06-0.41-0.36-0.76-0.89-1.07L169-4.1
					l3.13,1.89l-0.16,0.26c-0.43-0.19-0.74-0.29-0.93-0.29c-0.19,0-0.37,0.07-0.56,0.2c-0.19,0.14-0.42,0.43-0.69,0.88l-4.77,7.9
					l-0.24-0.14l-1.64-11.77l-3.64,6.03c-0.33,0.55-0.43,0.99-0.29,1.33c0.13,0.34,0.36,0.61,0.68,0.8l0.22,0.14l-0.16,0.26
					l-3.36-2.03l0.16-0.26c0.52,0.31,0.95,0.42,1.29,0.34c0.33-0.09,0.65-0.38,0.95-0.88l4.05-6.69l-0.05-0.37
					c-0.05-0.37-0.13-0.65-0.23-0.82c-0.11-0.17-0.3-0.35-0.58-0.53l0.16-0.26L165.69-6.1z"/>
				<path class="st9" d="M176.04,0.9l-2.33,3.86l0.19,0.11c0.6,0.36,1.15,0.44,1.65,0.22c0.5-0.21,1.01-0.67,1.53-1.36l0.27,0.16
					l-3,4.97l-0.27-0.16c0.27-0.57,0.42-1.09,0.45-1.54c0.03-0.45-0.04-0.81-0.21-1.07c-0.17-0.26-0.48-0.53-0.93-0.8l-1.61,2.67
					c-0.32,0.52-0.49,0.85-0.51,1c-0.03,0.14,0,0.29,0.07,0.44c0.08,0.15,0.25,0.3,0.52,0.47l0.57,0.34
					c0.89,0.54,1.72,0.76,2.5,0.67c0.78-0.09,1.54-0.48,2.28-1.18l0.26,0.16l-2.25,2.76l-8.2-4.95l0.16-0.26l0.31,0.19
					c0.28,0.17,0.53,0.25,0.75,0.26c0.16,0.01,0.32-0.05,0.48-0.17c0.12-0.08,0.32-0.36,0.61-0.83l3.77-6.24
					c0.26-0.43,0.41-0.7,0.44-0.81c0.05-0.19,0.04-0.37-0.03-0.53c-0.1-0.24-0.3-0.45-0.61-0.64l-0.31-0.19l0.16-0.26l7.94,4.8
					l-1.7,2.8l-0.27-0.16c0.28-0.77,0.39-1.37,0.32-1.82c-0.06-0.45-0.28-0.87-0.64-1.29c-0.21-0.24-0.68-0.58-1.39-1.01L176.04,0.9
					z"/>
				<path class="st9" d="M185.07,14.15l6.35-4.7l3.86,2.33l-0.16,0.26l-0.31-0.19c-0.28-0.17-0.53-0.26-0.76-0.26
					c-0.16,0-0.32,0.05-0.48,0.16c-0.12,0.08-0.32,0.36-0.61,0.83l-3.78,6.25c-0.29,0.49-0.45,0.8-0.47,0.96
					c-0.02,0.15,0.02,0.32,0.12,0.51c0.1,0.19,0.29,0.36,0.55,0.52l0.31,0.19l-0.16,0.26l-4.95-2.99l0.16-0.26l0.31,0.19
					c0.28,0.17,0.53,0.26,0.76,0.26c0.16,0.01,0.32-0.05,0.48-0.17c0.12-0.08,0.32-0.36,0.61-0.83l4.25-7.03l-8.87,6.45l-0.17-0.1
					l1.5-10.82l-4.04,6.68c-0.28,0.47-0.44,0.76-0.48,0.88c-0.08,0.27-0.06,0.54,0.05,0.81c0.11,0.27,0.39,0.54,0.82,0.8l-0.16,0.26
					l-3.24-1.96l0.16-0.26l0.1,0.06c0.21,0.13,0.42,0.22,0.65,0.25c0.23,0.04,0.42,0.02,0.59-0.04c0.17-0.06,0.34-0.19,0.53-0.38
					c0.04-0.05,0.19-0.28,0.45-0.71l3.63-6c0.29-0.48,0.45-0.8,0.47-0.95c0.02-0.15-0.02-0.32-0.12-0.51
					c-0.1-0.19-0.29-0.36-0.55-0.52l-0.3-0.18l0.16-0.26l3.87,2.34L185.07,14.15z"/>
				<path class="st9" d="M197.4,22.33l-3.35-2.02l-0.96,0.68c-0.32,0.23-0.54,0.44-0.66,0.64c-0.16,0.27-0.17,0.53-0.03,0.78
					c0.08,0.15,0.36,0.39,0.83,0.73l-0.16,0.26l-3.15-1.91l0.16-0.26c0.37,0.15,0.74,0.18,1.09,0.08c0.36-0.1,0.92-0.41,1.68-0.94
					l7.97-5.52l0.13,0.08l-1.28,9.84c-0.12,0.93-0.13,1.56-0.04,1.88c0.07,0.24,0.24,0.46,0.52,0.66l-0.16,0.26l-4.59-2.77
					l0.16-0.26l0.19,0.11c0.37,0.22,0.66,0.33,0.87,0.32c0.15-0.01,0.26-0.09,0.35-0.23c0.05-0.08,0.09-0.18,0.11-0.28
					c0.02-0.05,0.05-0.26,0.11-0.65L197.4,22.33z M197.47,21.67l0.56-4.12l-3.43,2.39L197.47,21.67z"/>
			</g>
		</g>
		<g>
			<g>
				<polygon class="st21" points="155.23,4.74 154.93,8.27 157.67,10.52 154.21,11.33 152.92,14.63 151.09,11.59 147.55,11.38 
					149.87,8.7 148.98,5.27 152.24,6.65 				"/>
				<polygon class="st21" points="168.37,12.68 168.07,16.22 170.8,18.47 167.35,19.27 166.06,22.57 164.23,19.54 160.69,19.32 
					163.01,16.64 162.12,13.21 165.38,14.59 				"/>
				<polygon class="st21" points="181.51,20.62 181.2,24.16 183.94,26.41 180.49,27.21 179.2,30.51 177.36,27.48 173.83,27.26 
					176.15,24.58 175.25,21.15 178.52,22.53 				"/>
			</g>
		</g>
		<path class="st22" d="M191.63,49.93L124.7,9.47l28.96-47.92L220.6,2.01L191.63,49.93z M127.75,8.72l63.13,38.16l26.66-44.11
			L154.42-35.4L127.75,8.72z"/>
	</g>
	<polygon style="clip-path:url(#SVGID_00000023268538647271951460000016445461438432458121_);fill:#FFE86C;" points="285.83,85.34 
		289.69,93.16 298.33,94.42 292.08,100.51 293.55,109.11 285.83,105.05 278.1,109.11 279.58,100.51 273.33,94.42 281.97,93.16 	"/>
	<polygon style="clip-path:url(#SVGID_00000023268538647271951460000016445461438432458121_);fill:#FFE86C;" points="32.98,330.29 
		36.84,338.12 45.48,339.37 39.23,345.46 40.71,354.07 32.98,350 25.26,354.07 26.73,345.46 20.48,339.37 29.12,338.12 	"/>
	<polygon style="clip-path:url(#SVGID_00000023268538647271951460000016445461438432458121_);fill:#FFE86C;" points="248.93,405.29 
		252.79,413.12 261.43,414.37 255.18,420.46 256.66,429.06 248.93,425 241.21,429.06 242.68,420.46 236.43,414.37 245.07,413.12 	
		"/>
	<polygon style="clip-path:url(#SVGID_00000023268538647271951460000016445461438432458121_);fill:#FFE86C;" points="112.2,83.54 
		116.07,91.36 124.7,92.62 118.45,98.71 119.93,107.31 112.2,103.25 104.48,107.31 105.95,98.71 99.7,92.62 108.34,91.36 	"/>
	<polygon style="clip-path:url(#SVGID_00000023268538647271951460000016445461438432458121_);fill:#FFE86C;" points="209.65,66.7 
		213.52,74.52 222.15,75.78 215.9,81.87 217.38,90.47 209.65,86.41 201.93,90.47 203.4,81.87 197.15,75.78 205.79,74.52 	"/>
	<polygon style="clip-path:url(#SVGID_00000023268538647271951460000016445461438432458121_);fill:#FFE86C;" points="106.18,405.29 
		110.04,413.12 118.68,414.37 112.43,420.46 113.9,429.06 106.18,425 98.45,429.06 99.93,420.46 93.68,414.37 102.31,413.12 	"/>
	<polygon style="clip-path:url(#SVGID_00000023268538647271951460000016445461438432458121_);fill:#FFE86C;" points="579.91,222.36 
		583.77,230.19 592.41,231.45 586.16,237.54 587.64,246.14 579.91,242.08 572.19,246.14 573.66,237.54 567.41,231.45 576.05,230.19 
			"/>
</g>
<g>
	<g>
		<path class="st7" d="M101.07,218.45c7.74,0,12.89,4.96,12.89,11.41c0,6.17-5.15,11.41-12.89,11.41H96.2v9.65h-9.14v-32.46H101.07z
			 M99.77,234.31c2.92,0.05,4.87-1.62,4.87-4.22c0-2.55-1.95-4.27-4.87-4.27H96.2v8.49H99.77z"/>
		<path class="st7" d="M116.46,234.68c0-9.65,7.6-16.79,17.44-16.79c10.06,0,17.53,7.05,17.53,16.79s-7.65,16.79-17.53,16.79
			C123.88,251.47,116.46,244.37,116.46,234.68z M142.11,234.68c0-4.96-3.52-8.58-8.21-8.58c-4.78,0-8.11,3.66-8.11,8.58
			s3.34,8.58,8.11,8.58C138.63,243.26,142.11,239.6,142.11,234.68z"/>
		<path class="st7" d="M155.27,248.96v-7.79c2.41,1.58,6.54,2.74,9.69,2.74c2.18,0.05,3.76-0.7,3.76-2.46c0-1.11-0.6-1.85-1.81-2.32
			l-5.47-2.27c-4.17-1.53-6.4-4.87-6.4-9c0-5.84,4.64-9.97,11.92-9.97c3.2,0,7,0.88,8.81,1.99v7.74c-2.09-1.48-6.12-2.32-8.58-2.37
			c-2.64,0-3.38,1.16-3.38,2.46c0,1.02,0.6,1.95,2.18,2.69l5.24,2.04c3.94,1.44,6.58,4.73,6.58,9c0,6.12-5.52,10.02-12.24,10.02
			C162.09,251.47,157.59,250.35,155.27,248.96z"/>
		<path class="st7" d="M204.93,218.45v8.21h-8.12v24.25h-9.14v-24.25h-8.07v-8.21H204.93z"/>
		<path class="st7" d="M231.45,226.33h-13.22v5.05h10.57v6.82l-10.57,0.05v4.78h13.22v7.88H209.1v-32.46h22.35V226.33z"/>
		<path class="st7" d="M265.21,250.91h-9.37l-0.83-5.19c-0.6-3.62-2.83-5.33-5.7-5.33h-3.57v10.53h-9.14v-32.46h15.67
			c7.74,0,12.66,4.82,12.66,11.22c0,3.34-1.9,6.31-4.78,8.02c1.81,1.21,3.43,3.48,4.03,7.14L265.21,250.91z M250.46,234.03
			c3.34,0,5.15-1.62,5.15-4.08c0-2.55-1.81-4.13-5.15-4.13h-4.73v8.21H250.46z"/>
		<path class="st7" d="M119.02,306.55h-9.14l-2.78-15.02l-7.6,13.73h-1.39l-7.6-13.73l-2.78,15.02h-9.14l5.66-32.46h5.24l9.32,16.79
			l9.37-16.79h5.24L119.02,306.55z"/>
		<path class="st7" d="M123.33,306.55v-32.46h9.14v32.46H123.33z"/>
		<path class="st7" d="M137.84,304.6v-7.79c2.41,1.58,6.54,2.74,9.69,2.74c2.18,0.05,3.76-0.7,3.76-2.46c0-1.11-0.6-1.85-1.81-2.32
			L144,292.5c-4.17-1.53-6.4-4.87-6.4-9c0-5.84,4.64-9.97,11.92-9.97c3.2,0,7,0.88,8.81,1.99v7.74c-2.09-1.48-6.12-2.32-8.58-2.37
			c-2.64,0-3.38,1.16-3.38,2.46c0,1.02,0.6,1.95,2.18,2.69l5.24,2.04c3.94,1.44,6.58,4.73,6.58,9c0,6.12-5.52,10.02-12.24,10.02
			C144.65,307.11,140.16,305.99,137.84,304.6z"/>
		<path class="st7" d="M164.13,304.6v-7.79c2.41,1.58,6.54,2.74,9.69,2.74c2.18,0.05,3.76-0.7,3.76-2.46c0-1.11-0.6-1.85-1.81-2.32
			l-5.47-2.27c-4.17-1.53-6.4-4.87-6.4-9c0-5.84,4.64-9.97,11.92-9.97c3.2,0,7,0.88,8.81,1.99v7.74c-2.09-1.48-6.12-2.32-8.58-2.37
			c-2.64,0-3.38,1.16-3.38,2.46c0,1.02,0.6,1.95,2.18,2.69l5.24,2.04c3.94,1.44,6.58,4.73,6.58,9c0,6.12-5.52,10.02-12.24,10.02
			C170.94,307.11,166.44,305.99,164.13,304.6z"/>
		<path class="st7" d="M191.2,306.55v-32.46h9.14v32.46H191.2z"/>
		<path class="st7" d="M226.44,274.09h9.13v32.46h-1.62l-18.32-15.16v15.16h-9.14v-32.46h1.53l18.41,16.04V274.09z"/>
		<path class="st7" d="M257.27,288.28h14.14v14.75c-3.71,2.5-9.18,4.08-13.96,4.08c-9.46,0-17.2-6.63-17.2-16.74
			c0-10.2,8.21-16.83,18.08-16.83c4.22,0,8.62,1.11,10.94,2.83v7.7h-0.6c-2.27-1.58-6.07-2.64-9.51-2.64c-5.47,0-9.6,3.57-9.6,9.18
			c0,5.52,3.9,8.72,8.39,8.72c2.18,0,4.31-0.42,5.42-1.07v-3.85h-6.12V288.28z"/>
	</g>
</g>
</svg>
